<svg width="209" height="215" viewBox="0 0 209 215" fill="none" xmlns="http://www.w3.org/2000/svg">
<path d="M144.934 53.4403C158.337 63.1708 168.314 76.8944 173.438 92.6443C178.561 108.394 178.567 125.362 173.454 141.115C168.341 156.868 158.373 170.599 144.977 180.338C131.581 190.078 115.446 195.326 98.8835 195.332L98.8572 116.905L144.934 53.4403Z" fill="#125DA2"/>
<path d="M24.2763 141.164C19.1532 125.414 19.1477 108.447 24.2606 92.6934C29.3736 76.9401 39.3424 63.2099 52.7383 53.4706C66.1343 43.7312 82.2696 38.4828 98.8318 38.4774C115.394 38.4721 131.533 43.7101 144.935 53.4408L98.8572 116.905L24.2763 141.164Z" fill="#CB2123"/>
<path d="M98.8574 195.332C82.2952 195.332 66.1582 190.089 52.7591 180.354C39.36 170.619 29.3867 156.892 24.2687 141.14L98.8574 116.905L98.8574 195.332Z" fill="#F7BE12"/>
<g filter="url(#filter0_b)">
<path d="M125.498 30.0136C121.798 30.0136 118.833 29.0616 116.603 27.1575C114.372 25.199 113.148 22.5877 112.931 19.3235C112.822 17.6914 112.768 16.5489 112.768 15.8961C112.768 15.2433 112.822 13.8288 112.931 11.6527C113.094 8.33411 114.264 5.69557 116.44 3.73707C118.616 1.77857 121.635 0.799316 125.498 0.799316C129.306 0.799316 132.298 1.77857 134.474 3.73707C136.65 5.69557 137.82 8.33411 137.983 11.6527C138.092 13.8288 138.146 15.2433 138.146 15.8961C138.146 16.5489 138.092 17.6914 137.983 19.3235C137.766 22.5877 136.542 25.199 134.311 27.1575C132.081 29.0616 129.143 30.0136 125.498 30.0136ZM118.97 58.3303C118.425 58.3303 117.963 58.1943 117.582 57.9223C117.256 57.5959 117.093 57.1879 117.093 56.6982C117.093 56.3718 117.201 56.0726 117.419 55.8006L157.732 2.75782C158.167 2.21379 158.575 1.83297 158.956 1.61536C159.336 1.34334 159.88 1.20734 160.588 1.20734H166.382C166.926 1.20734 167.361 1.37055 167.687 1.69697C168.068 1.96898 168.258 2.3498 168.258 2.83942C168.258 3.16584 168.15 3.46505 167.932 3.73707L127.62 56.7798C127.184 57.3239 126.776 57.7319 126.395 58.0039C126.015 58.2215 125.471 58.3303 124.763 58.3303H118.97ZM125.498 22.9141C127.783 22.9141 129.034 21.5812 129.252 18.9155C129.36 17.1746 129.415 16.0321 129.415 15.4881C129.415 14.7808 129.36 13.6656 129.252 12.1423C129.197 10.9454 128.844 9.9662 128.191 9.20455C127.592 8.44291 126.695 8.06209 125.498 8.06209C124.247 8.06209 123.322 8.44291 122.723 9.20455C122.125 9.9662 121.771 10.9454 121.662 12.1423C121.608 12.9039 121.581 14.0192 121.581 15.4881C121.581 16.9026 121.608 18.045 121.662 18.9155C121.88 21.5812 123.159 22.9141 125.498 22.9141ZM160.016 58.7383C156.317 58.7383 153.352 57.7863 151.122 55.8822C148.945 53.9237 147.721 51.2852 147.449 47.9666C147.395 47.0417 147.368 45.7905 147.368 44.2128C147.368 42.5807 147.395 41.275 147.449 40.2958C147.667 36.9228 148.837 34.2571 150.958 32.2986C153.134 30.3401 156.154 29.3608 160.016 29.3608C163.879 29.3608 166.871 30.3401 168.993 32.2986C171.169 34.2571 172.366 36.9228 172.583 40.2958C172.692 42.4719 172.747 43.8864 172.747 44.5392C172.747 45.192 172.692 46.3345 172.583 47.9666C172.366 51.2307 171.142 53.8421 168.911 55.8006C166.681 57.7591 163.716 58.7383 160.016 58.7383ZM160.016 51.5572C161.268 51.5572 162.193 51.1763 162.791 50.4147C163.389 49.5987 163.743 48.6194 163.852 47.477C163.961 45.8449 164.015 44.7024 164.015 44.0496C164.015 43.3423 163.961 42.2271 163.852 40.7038C163.743 39.5613 163.389 38.6093 162.791 37.8476C162.193 37.0316 161.268 36.6236 160.016 36.6236C158.765 36.6236 157.84 37.0316 157.242 37.8476C156.643 38.6093 156.317 39.5613 156.263 40.7038C156.208 41.4654 156.181 42.5807 156.181 44.0496C156.181 45.5184 156.208 46.6609 156.263 47.477C156.371 48.6738 156.698 49.6531 157.242 50.4147C157.84 51.1763 158.765 51.5572 160.016 51.5572Z" fill="#575962" fill-opacity="0.1"/>
</g>
<mask id="mask0" mask-type="alpha" maskUnits="userSpaceOnUse" x="112" y="0" width="61" height="59">
<path d="M125.498 30.0136C121.798 30.0136 118.833 29.0616 116.603 27.1575C114.372 25.199 113.148 22.5877 112.931 19.3235C112.822 17.6914 112.768 16.5489 112.768 15.8961C112.768 15.2433 112.822 13.8288 112.931 11.6527C113.094 8.33411 114.264 5.69557 116.44 3.73707C118.616 1.77857 121.635 0.799316 125.498 0.799316C129.306 0.799316 132.298 1.77857 134.474 3.73707C136.65 5.69557 137.82 8.33411 137.983 11.6527C138.092 13.8288 138.146 15.2433 138.146 15.8961C138.146 16.5489 138.092 17.6914 137.983 19.3235C137.766 22.5877 136.542 25.199 134.311 27.1575C132.081 29.0616 129.143 30.0136 125.498 30.0136ZM118.97 58.3303C118.425 58.3303 117.963 58.1943 117.582 57.9223C117.256 57.5959 117.093 57.1879 117.093 56.6982C117.093 56.3718 117.201 56.0726 117.419 55.8006L157.732 2.75782C158.167 2.21379 158.575 1.83297 158.956 1.61536C159.336 1.34334 159.88 1.20734 160.588 1.20734H166.382C166.926 1.20734 167.361 1.37055 167.687 1.69697C168.068 1.96898 168.258 2.3498 168.258 2.83942C168.258 3.16584 168.15 3.46505 167.932 3.73707L127.62 56.7798C127.184 57.3239 126.776 57.7319 126.395 58.0039C126.015 58.2215 125.471 58.3303 124.763 58.3303H118.97ZM125.498 22.9141C127.783 22.9141 129.034 21.5812 129.252 18.9155C129.36 17.1746 129.415 16.0321 129.415 15.4881C129.415 14.7808 129.36 13.6656 129.252 12.1423C129.197 10.9454 128.844 9.9662 128.191 9.20455C127.592 8.44291 126.695 8.06209 125.498 8.06209C124.247 8.06209 123.322 8.44291 122.723 9.20455C122.125 9.9662 121.771 10.9454 121.662 12.1423C121.608 12.9039 121.581 14.0192 121.581 15.4881C121.581 16.9026 121.608 18.045 121.662 18.9155C121.88 21.5812 123.159 22.9141 125.498 22.9141ZM160.016 58.7383C156.317 58.7383 153.352 57.7863 151.122 55.8822C148.945 53.9237 147.721 51.2852 147.449 47.9666C147.395 47.0417 147.368 45.7905 147.368 44.2128C147.368 42.5807 147.395 41.275 147.449 40.2958C147.667 36.9228 148.837 34.2571 150.958 32.2986C153.134 30.3401 156.154 29.3608 160.016 29.3608C163.879 29.3608 166.871 30.3401 168.993 32.2986C171.169 34.2571 172.366 36.9228 172.583 40.2958C172.692 42.4719 172.747 43.8864 172.747 44.5392C172.747 45.192 172.692 46.3345 172.583 47.9666C172.366 51.2307 171.142 53.8421 168.911 55.8006C166.681 57.7591 163.716 58.7383 160.016 58.7383ZM160.016 51.5572C161.268 51.5572 162.193 51.1763 162.791 50.4147C163.389 49.5987 163.743 48.6194 163.852 47.477C163.961 45.8449 164.015 44.7024 164.015 44.0496C164.015 43.3423 163.961 42.2271 163.852 40.7038C163.743 39.5613 163.389 38.6093 162.791 37.8476C162.193 37.0316 161.268 36.6236 160.016 36.6236C158.765 36.6236 157.84 37.0316 157.242 37.8476C156.643 38.6093 156.317 39.5613 156.263 40.7038C156.208 41.4654 156.181 42.5807 156.181 44.0496C156.181 45.5184 156.208 46.6609 156.263 47.477C156.371 48.6738 156.698 49.6531 157.242 50.4147C157.84 51.1763 158.765 51.5572 160.016 51.5572Z" fill="#F2F3F7" fill-opacity="0.1"/>
</mask>
<g mask="url(#mask0)">
<g filter="url(#filter1_b)">
<path d="M77.8223 42.4722L104.327 7.06255L191.83 72.5592L165.326 107.969L77.8223 42.4722Z" fill="url(#paint0_linear)"/>
</g>
</g>
<path fill-rule="evenodd" clip-rule="evenodd" d="M112.931 11.6527C112.822 13.8288 112.768 15.2433 112.768 15.8961C112.768 16.5489 112.822 17.6914 112.931 19.3235C113.148 22.5877 114.372 25.199 116.603 27.1575C118.833 29.0616 121.798 30.0136 125.498 30.0136C129.143 30.0136 132.081 29.0616 134.311 27.1575C136.542 25.199 137.766 22.5877 137.983 19.3235C138.092 17.6914 138.146 16.5489 138.146 15.8961C138.146 15.2433 138.092 13.8288 137.983 11.6527C137.82 8.33411 136.65 5.69557 134.474 3.73707C132.298 1.77857 129.306 0.799316 125.498 0.799316C121.635 0.799316 118.616 1.77857 116.44 3.73707C114.264 5.69557 113.094 8.33411 112.931 11.6527ZM133.329 26.0234C135.225 24.3556 136.293 22.1322 136.487 19.2237C136.596 17.5902 136.646 16.4932 136.646 15.8961C136.646 15.2879 136.594 13.9129 136.485 11.7276L136.485 11.7264C136.339 8.74824 135.309 6.50629 133.471 4.85201C131.645 3.20851 129.05 2.29932 125.498 2.29932C121.885 2.29932 119.266 3.21181 117.443 4.85201C115.605 6.50629 114.575 8.74824 114.429 11.7264L114.429 11.7276C114.32 13.9129 114.268 15.2879 114.268 15.8961C114.268 16.4932 114.319 17.5902 114.427 19.2237C114.621 22.1322 115.689 24.3555 117.585 26.0234C119.478 27.6359 122.064 28.5136 125.498 28.5136C128.871 28.5136 131.432 27.6392 133.329 26.0234ZM158.956 1.61536C158.575 1.83297 158.167 2.21379 157.732 2.75782L117.419 55.8006C117.201 56.0726 117.093 56.3718 117.093 56.6982C117.093 57.1879 117.256 57.5959 117.582 57.9223C117.963 58.1943 118.425 58.3303 118.97 58.3303H124.763C125.471 58.3303 126.015 58.2215 126.395 58.0039C126.776 57.7319 127.184 57.3239 127.62 56.7798L167.932 3.73707C168.15 3.46505 168.258 3.16584 168.258 2.83942C168.258 2.3498 168.068 1.96898 167.687 1.69697C167.361 1.37055 166.926 1.20734 166.382 1.20734H160.588C159.88 1.20734 159.336 1.34334 158.956 1.61536ZM126.437 55.8568L166.722 2.85064L166.714 2.84541L166.627 2.75763C166.616 2.7469 166.608 2.74119 166.589 2.73424C166.566 2.72555 166.504 2.70734 166.382 2.70734H160.588C160.042 2.70734 159.854 2.81705 159.827 2.83595L159.766 2.88007L159.7 2.91772C159.552 3.00194 159.287 3.21745 158.914 3.68097L118.602 56.7231L118.594 56.7336C118.595 56.7508 118.596 56.7649 118.598 56.7762C118.685 56.8075 118.804 56.8303 118.97 56.8303H124.763C125.249 56.8303 125.499 56.7647 125.603 56.7237C125.819 56.5542 126.099 56.2783 126.437 55.8568ZM130.748 19.0233L130.747 19.0375C130.623 20.5572 130.188 21.9355 129.244 22.9411C128.267 23.9816 126.944 24.4141 125.498 24.4141C124.035 24.4141 122.695 23.9881 121.702 22.9528C120.737 21.947 120.292 20.5642 120.167 19.0375L120.166 19.0233L120.165 19.009C120.108 18.0944 120.081 16.9172 120.081 15.4881C120.081 14.0097 120.108 12.8516 120.166 12.0354L120.167 12.021L120.169 12.0065C120.297 10.5907 120.728 9.31653 121.544 8.27782L122.723 9.20455C122.125 9.9662 121.771 10.9454 121.662 12.1423C121.608 12.9039 121.581 14.0192 121.581 15.4881C121.581 16.9026 121.608 18.045 121.662 18.9155C121.88 21.5812 123.159 22.9141 125.498 22.9141C127.783 22.9141 129.034 21.5812 129.252 18.9155C129.36 17.1746 129.415 16.0321 129.415 15.4881C129.415 14.7808 129.36 13.6656 129.252 12.1423C129.197 10.9454 128.844 9.9662 128.191 9.20455C127.592 8.44291 126.695 8.06209 125.498 8.06209C124.247 8.06209 123.322 8.44291 122.723 9.20455L121.544 8.27782C122.506 7.05312 123.932 6.56209 125.498 6.56209C127.024 6.56209 128.401 7.06232 129.35 8.25219C130.243 9.30568 130.68 10.609 130.749 12.054C130.857 13.5727 130.915 14.7269 130.915 15.4881C130.915 16.0875 130.857 17.2783 130.749 19.009L130.748 19.0233ZM167.982 33.4072L167.975 33.4008C166.213 31.7742 163.632 30.8608 160.016 30.8608C156.408 30.8608 153.791 31.771 151.969 33.4072C150.183 35.0587 149.145 37.3343 148.947 40.3859C148.895 41.3247 148.868 42.5968 148.868 44.2128C148.868 45.7681 148.895 46.9803 148.946 47.8611C149.193 50.8384 150.271 53.0915 152.11 54.754C154.003 56.3627 156.587 57.2383 160.016 57.2383C163.445 57.2383 166.027 56.3366 167.922 54.6734C169.822 53.0048 170.893 50.7793 171.087 47.8668C171.196 46.2332 171.247 45.1363 171.247 44.5392C171.247 43.9321 171.195 42.5607 171.086 40.3818C170.888 37.3398 169.827 35.0674 167.989 33.4135L167.982 33.4072ZM172.583 40.2958C172.366 36.9228 171.169 34.2571 168.993 32.2986C166.871 30.3401 163.879 29.3608 160.016 29.3608C156.154 29.3608 153.134 30.3401 150.958 32.2986C148.837 34.2571 147.667 36.9228 147.449 40.2958C147.395 41.275 147.368 42.5807 147.368 44.2128C147.368 45.7905 147.395 47.0417 147.449 47.9666C147.721 51.2852 148.945 53.9237 151.122 55.8822C153.352 57.7863 156.317 58.7383 160.016 58.7383C163.716 58.7383 166.681 57.7591 168.911 55.8006C171.142 53.8421 172.366 51.2307 172.583 47.9666C172.692 46.3345 172.747 45.192 172.747 44.5392C172.747 43.8864 172.692 42.4719 172.583 40.2958ZM163.986 51.3218L163.97 51.3414C163.008 52.5661 161.582 53.0572 160.016 53.0572C158.451 53.0572 157.025 52.5661 156.062 51.3414L156.041 51.3145L156.021 51.2866C155.284 50.2549 154.895 49.001 154.769 47.6128L154.767 47.5948L154.766 47.5767C154.708 46.7112 154.681 45.5301 154.681 44.0496C154.681 42.5815 154.708 41.4293 154.765 40.6142C154.834 39.2339 155.237 37.9803 156.047 36.94C156.996 35.6618 158.422 35.1236 160.016 35.1236C161.611 35.1236 163.037 35.6618 163.985 36.94C164.783 37.9629 165.215 39.1952 165.345 40.5616L165.347 40.5792L165.348 40.5969C165.457 42.1249 165.515 43.2853 165.515 44.0496C165.515 44.7582 165.457 45.9461 165.349 47.5767L165.347 47.598L165.345 47.6192C165.214 48.9941 164.78 50.2395 164.001 51.3018L163.986 51.3218ZM162.791 37.8476C162.193 37.0316 161.268 36.6236 160.016 36.6236C158.765 36.6236 157.84 37.0316 157.242 37.8476C156.643 38.6093 156.317 39.5613 156.263 40.7038C156.208 41.4654 156.181 42.5807 156.181 44.0496C156.181 45.5184 156.208 46.6609 156.263 47.477C156.371 48.6738 156.698 49.6531 157.242 50.4147C157.84 51.1763 158.765 51.5572 160.016 51.5572C161.268 51.5572 162.193 51.1763 162.791 50.4147C163.389 49.5987 163.743 48.6194 163.852 47.477C163.961 45.8449 164.015 44.7024 164.015 44.0496C164.015 43.3423 163.961 42.2271 163.852 40.7038C163.743 39.5613 163.389 38.6093 162.791 37.8476Z" fill="url(#paint1_linear)"/>
<g filter="url(#filter2_b)">
<path d="M83.4107 58.3433C78.6676 58.3433 74.6095 57.6054 71.2366 56.1298C67.8637 54.6014 65.2813 52.5724 63.4895 50.0427C61.7503 47.5131 60.8281 44.7726 60.7227 41.8213C60.7227 41.347 60.8808 40.9517 61.197 40.6355C61.5132 40.3193 61.9084 40.1612 62.3828 40.1612H72.9758C74.1879 40.1612 75.0311 40.6619 75.5055 41.6632C76.9284 45.1942 79.5898 46.9597 83.4898 46.9597C85.8086 46.9597 87.7586 46.2482 89.3396 44.8253C90.9734 43.3496 91.7903 41.3206 91.7903 38.7382C91.7903 36.4194 90.9997 34.5221 89.4187 33.0465C87.8903 31.5708 85.914 30.833 83.4898 30.833C82.1195 30.833 81.0128 31.0175 80.1696 31.3864C79.379 31.7026 78.5622 32.1769 77.7189 32.8093C76.823 33.4944 76.1115 33.837 75.5845 33.837H65.2286C64.7543 33.837 64.3327 33.6789 63.9638 33.3627C63.6476 32.9938 63.4895 32.5722 63.4895 32.0978L66.3354 4.50854C66.3881 3.77072 66.6516 3.191 67.1259 2.76938C67.6529 2.34777 68.259 2.13696 68.9441 2.13696H100.644C101.224 2.13696 101.698 2.32142 102.067 2.69033C102.489 3.05924 102.7 3.53356 102.7 4.11328V11.5442C102.7 12.1239 102.489 12.5982 102.067 12.9671C101.698 13.3361 101.224 13.5205 100.644 13.5205H77.7189L76.6913 23.7183C78.0088 22.8224 79.4581 22.1636 81.0391 21.742C82.6202 21.2677 84.6755 21.0305 87.2052 21.0305C90.5254 21.0305 93.6612 21.7947 96.6125 23.323C99.5638 24.7987 101.909 26.9067 103.648 29.6472C105.44 32.3877 106.336 35.5234 106.336 39.0545C106.336 42.7963 105.414 46.1428 103.569 49.0941C101.725 51.9927 99.0631 54.2589 95.5848 55.8926C92.1592 57.5264 88.1012 58.3433 83.4107 58.3433Z" fill="#575962" fill-opacity="0.1"/>
</g>
<mask id="mask1" mask-type="alpha" maskUnits="userSpaceOnUse" x="60" y="2" width="47" height="57">
<path d="M83.4107 58.3433C78.6676 58.3433 74.6095 57.6054 71.2366 56.1298C67.8637 54.6014 65.2813 52.5724 63.4895 50.0427C61.7503 47.5131 60.8281 44.7726 60.7227 41.8213C60.7227 41.347 60.8808 40.9517 61.197 40.6355C61.5132 40.3193 61.9084 40.1612 62.3828 40.1612H72.9758C74.1879 40.1612 75.0311 40.6619 75.5055 41.6632C76.9284 45.1942 79.5898 46.9597 83.4898 46.9597C85.8086 46.9597 87.7586 46.2482 89.3396 44.8253C90.9734 43.3496 91.7903 41.3206 91.7903 38.7382C91.7903 36.4194 90.9997 34.5221 89.4187 33.0465C87.8903 31.5708 85.914 30.833 83.4898 30.833C82.1195 30.833 81.0128 31.0175 80.1696 31.3864C79.379 31.7026 78.5622 32.1769 77.7189 32.8093C76.823 33.4944 76.1115 33.837 75.5845 33.837H65.2286C64.7543 33.837 64.3327 33.6789 63.9638 33.3627C63.6476 32.9938 63.4895 32.5722 63.4895 32.0978L66.3354 4.50854C66.3881 3.77072 66.6516 3.191 67.1259 2.76938C67.6529 2.34777 68.259 2.13696 68.9441 2.13696H100.644C101.224 2.13696 101.698 2.32142 102.067 2.69033C102.489 3.05924 102.7 3.53356 102.7 4.11328V11.5442C102.7 12.1239 102.489 12.5982 102.067 12.9671C101.698 13.3361 101.224 13.5205 100.644 13.5205H77.7189L76.6913 23.7183C78.0088 22.8224 79.4581 22.1636 81.0391 21.742C82.6202 21.2677 84.6755 21.0305 87.2052 21.0305C90.5254 21.0305 93.6612 21.7947 96.6125 23.323C99.5638 24.7987 101.909 26.9067 103.648 29.6472C105.44 32.3877 106.336 35.5234 106.336 39.0545C106.336 42.7963 105.414 46.1428 103.569 49.0941C101.725 51.9927 99.0631 54.2589 95.5848 55.8926C92.1592 57.5264 88.1012 58.3433 83.4107 58.3433Z" fill="url(#paint2_linear)" fill-opacity="0.1"/>
</mask>
<g mask="url(#mask1)">
<g filter="url(#filter3_b)">
<path d="M29.6279 44.5669L58.1132 11.0962L118.16 62.1993L89.675 95.67L29.6279 44.5669Z" fill="url(#paint3_linear)"/>
</g>
</g>
<path fill-rule="evenodd" clip-rule="evenodd" d="M102.067 2.69033C101.698 2.32142 101.224 2.13696 100.644 2.13696H68.9441C68.259 2.13696 67.6529 2.34777 67.1259 2.76938C66.6516 3.191 66.3881 3.77072 66.3354 4.50854L63.4895 32.0978C63.4895 32.5722 63.6476 32.9938 63.9638 33.3627C64.3327 33.6789 64.7543 33.837 65.2286 33.837H75.5845C76.1115 33.837 76.823 33.4944 77.7189 32.8093C78.5622 32.1769 79.379 31.7026 80.1696 31.3864C81.0128 31.0175 82.1195 30.833 83.4898 30.833C85.914 30.833 87.8903 31.5708 89.4187 33.0465C90.9997 34.5221 91.7903 36.4194 91.7903 38.7382C91.7903 41.3206 90.9734 43.3496 89.3396 44.8253C87.7586 46.2482 85.8086 46.9597 83.4898 46.9597C79.5898 46.9597 76.9284 45.1942 75.5055 41.6632C75.0311 40.6619 74.1879 40.1612 72.9758 40.1612H62.3828C61.9084 40.1612 61.5132 40.3193 61.197 40.6355C60.8808 40.9517 60.7227 41.347 60.7227 41.8213C60.8281 44.7726 61.7503 47.5131 63.4895 50.0427C65.2813 52.5724 67.8637 54.6014 71.2366 56.1298C74.6095 57.6054 78.6676 58.3433 83.4107 58.3433C88.1012 58.3433 92.1592 57.5264 95.5848 55.8926C99.0631 54.2589 101.725 51.9927 103.569 49.0941C105.414 46.1428 106.336 42.7963 106.336 39.0545C106.336 35.5234 105.44 32.3877 103.648 29.6472C101.909 26.9067 99.5638 24.7987 96.6125 23.323C93.6612 21.7947 90.5254 21.0305 87.2052 21.0305C84.6755 21.0305 82.6202 21.2677 81.0391 21.742C80.075 21.9991 79.1598 22.3444 78.2936 22.7779C77.7394 23.0553 77.2053 23.3687 76.6913 23.7183L77.7189 13.5205H100.644C101.224 13.5205 101.698 13.3361 102.067 12.9671C102.489 12.5982 102.7 12.1239 102.7 11.5442V4.11328C102.7 3.53356 102.489 3.05924 102.067 2.69033ZM102.3 48.2938C103.983 45.6002 104.836 42.5349 104.836 39.0545C104.836 35.7911 104.012 32.9453 102.393 30.4681L102.387 30.4596L102.382 30.451C100.791 27.9445 98.6535 26.0206 95.9416 24.6647L95.9321 24.6599L95.9227 24.655C93.1843 23.2369 90.2851 22.5305 87.2052 22.5305C84.7526 22.5305 82.8579 22.7624 81.4702 23.1787L81.448 23.1854L81.4256 23.1913C80.0031 23.5707 78.709 24.1602 77.5347 24.9587L74.8765 26.7663L76.3625 12.0205H100.644C100.874 12.0205 100.951 11.9616 101.006 11.9065L101.042 11.8712L101.079 11.8383C101.163 11.7653 101.2 11.7086 101.2 11.5442V4.11328C101.2 3.94891 101.163 3.89214 101.079 3.8192L101.042 3.78631L101.006 3.75099C100.951 3.69588 100.874 3.63696 100.644 3.63696H68.9441C68.6093 3.63696 68.3438 3.7269 68.0968 3.91433C67.9729 4.03451 67.8594 4.22519 67.8316 4.61541L67.8299 4.63896L64.9919 32.1516C64.9967 32.2008 65.0093 32.2451 65.035 32.2915C65.0977 32.3261 65.1565 32.337 65.2286 32.337H75.5725C75.5792 32.3354 75.669 32.3218 75.8627 32.2286C76.0965 32.116 76.4095 31.9223 76.8078 31.6178L76.8189 31.6093C77.7365 30.9211 78.6604 30.3772 79.5908 30.0023C80.6886 29.5273 82.0148 29.333 83.4898 29.333C86.2389 29.333 88.6048 30.1803 90.4514 31.9585C92.3539 33.7388 93.2903 36.0416 93.2903 38.7382C93.2903 41.6645 92.3488 44.1286 90.3451 45.9384L90.3431 45.9402C88.4608 47.6343 86.143 48.4597 83.4898 48.4597C81.3106 48.4597 79.3657 47.9643 77.7396 46.8855C76.124 45.8138 74.9363 44.2414 74.1338 42.2723C74.0116 42.0271 73.8784 41.9018 73.7515 41.8265C73.6106 41.7428 73.3756 41.6612 72.9758 41.6612H62.3828C62.3156 41.6612 62.2897 41.6717 62.2877 41.6725C62.2857 41.6733 62.2839 41.6741 62.281 41.6761C62.2779 41.6781 62.27 41.6838 62.2576 41.6962C62.2452 41.7086 62.2396 41.7165 62.2375 41.7195C62.2356 41.7224 62.2347 41.7242 62.2339 41.7262C62.2332 41.728 62.2247 41.7491 62.223 41.802C62.3235 44.4402 63.146 46.8922 64.7195 49.1842C66.3284 51.452 68.6774 53.3218 71.8467 54.7594C74.9822 56.1294 78.8216 56.8433 83.4107 56.8433C87.9292 56.8433 91.757 56.0563 94.9391 54.5387L94.9471 54.5349C98.1974 53.0083 100.626 50.9224 102.3 48.2938Z" fill="url(#paint4_linear)"/>
<path d="M37.1839 43.8317C36.8445 43.8317 36.5561 43.7129 36.3185 43.4754C36.081 43.2378 35.9622 42.9494 35.9622 42.61V32.6836H26.1885C25.8491 32.6836 25.5607 32.5648 25.3231 32.3273C25.0856 32.0897 24.9668 31.7843 24.9668 31.411V28.764C24.9668 28.3907 25.0856 28.1022 25.3231 27.8986C25.5607 27.661 25.8491 27.5423 26.1885 27.5423H35.9622V17.8704C35.9622 17.4971 36.081 17.2086 36.3185 17.005C36.5561 16.7675 36.8445 16.6487 37.1839 16.6487H40.1364C40.5097 16.6487 40.7981 16.7675 41.0017 17.005C41.2393 17.2086 41.3581 17.4971 41.3581 17.8704V27.5423H51.1317C51.505 27.5423 51.7935 27.661 51.9971 27.8986C52.2347 28.1022 52.3535 28.3907 52.3535 28.764V31.411C52.3535 31.7843 52.2347 32.0897 51.9971 32.3273C51.7596 32.5648 51.4711 32.6836 51.1317 32.6836H41.3581V42.61C41.3581 42.9494 41.2393 43.2378 41.0017 43.4754C40.7981 43.7129 40.5097 43.8317 40.1364 43.8317H37.1839Z" fill="#001424"/>
<defs>
<filter id="filter0_b" x="102.768" y="-9.20068" width="79.9791" height="77.939" filterUnits="userSpaceOnUse" color-interpolation-filters="sRGB">
<feFlood flood-opacity="0" result="BackgroundImageFix"/>
<feGaussianBlur in="BackgroundImage" stdDeviation="5"/>
<feComposite in2="SourceAlpha" operator="in" result="effect1_backgroundBlur"/>
<feBlend mode="normal" in="SourceGraphic" in2="effect1_backgroundBlur" result="shape"/>
</filter>
<filter id="filter1_b" x="-22.1777" y="-92.9375" width="314.008" height="300.906" filterUnits="userSpaceOnUse" color-interpolation-filters="sRGB">
<feFlood flood-opacity="0" result="BackgroundImageFix"/>
<feGaussianBlur in="BackgroundImage" stdDeviation="50"/>
<feComposite in2="SourceAlpha" operator="in" result="effect1_backgroundBlur"/>
<feBlend mode="normal" in="SourceGraphic" in2="effect1_backgroundBlur" result="shape"/>
</filter>
<filter id="filter2_b" x="50.7227" y="-7.86304" width="65.6133" height="76.2063" filterUnits="userSpaceOnUse" color-interpolation-filters="sRGB">
<feFlood flood-opacity="0" result="BackgroundImageFix"/>
<feGaussianBlur in="BackgroundImage" stdDeviation="5"/>
<feComposite in2="SourceAlpha" operator="in" result="effect1_backgroundBlur"/>
<feBlend mode="normal" in="SourceGraphic" in2="effect1_backgroundBlur" result="shape"/>
</filter>
<filter id="filter3_b" x="-70.3721" y="-88.9038" width="288.532" height="284.574" filterUnits="userSpaceOnUse" color-interpolation-filters="sRGB">
<feFlood flood-opacity="0" result="BackgroundImageFix"/>
<feGaussianBlur in="BackgroundImage" stdDeviation="50"/>
<feComposite in2="SourceAlpha" operator="in" result="effect1_backgroundBlur"/>
<feBlend mode="normal" in="SourceGraphic" in2="effect1_backgroundBlur" result="shape"/>
</filter>
<linearGradient id="paint0_linear" x1="123.167" y1="42.7221" x2="192.679" y2="78.6954" gradientUnits="userSpaceOnUse">
<stop stop-color="white"/>
<stop offset="1" stop-color="white" stop-opacity="0.09"/>
</linearGradient>
<linearGradient id="paint1_linear" x1="159.011" y1="4.13813" x2="129.351" y2="57.8711" gradientUnits="userSpaceOnUse">
<stop stop-color="#B3C1D4"/>
<stop offset="0.221329" stop-color="white"/>
<stop offset="0.537063" stop-color="#F1F1F2"/>
<stop offset="0.755944" stop-color="#ECEDF2"/>
<stop offset="1" stop-color="#BEC7D6"/>
</linearGradient>
<linearGradient id="paint2_linear" x1="94.6493" y1="21.7683" x2="69.2867" y2="58.3959" gradientUnits="userSpaceOnUse">
<stop stop-color="#F2F3F7"/>
<stop offset="1" stop-color="#F2F3F7" stop-opacity="0"/>
</linearGradient>
<linearGradient id="paint3_linear" x1="67.0243" y1="41.1989" x2="101.566" y2="63.6907" gradientUnits="userSpaceOnUse">
<stop stop-color="white"/>
<stop offset="1" stop-color="white" stop-opacity="0"/>
</linearGradient>
<linearGradient id="paint4_linear" x1="95.89" y1="5.37592" x2="63.8757" y2="50.8421" gradientUnits="userSpaceOnUse">
<stop stop-color="#B3C1D4"/>
<stop offset="0.221329" stop-color="white"/>
<stop offset="0.537063" stop-color="#F1F1F2"/>
<stop offset="0.755944" stop-color="#ECEDF2"/>
<stop offset="1" stop-color="#BEC7D6"/>
</linearGradient>
</defs>
</svg>
