<svg width="220" height="227" viewBox="0 0 220 227" fill="none" xmlns="http://www.w3.org/2000/svg">
<path d="M155.934 53.4404C169.336 63.1709 179.314 76.8945 184.437 92.6444C189.561 108.394 189.566 125.362 184.454 141.115C179.341 156.868 169.372 170.599 155.977 180.338C142.581 190.078 126.445 195.326 109.883 195.332L109.857 116.905L155.934 53.4404Z" fill="#125DA2"/>
<path d="M35.2761 141.164C30.153 125.414 30.1476 108.447 35.2605 92.6934C40.3734 76.9402 50.3422 63.21 63.7382 53.4706C77.1341 43.7313 93.2695 38.4828 109.832 38.4775C126.394 38.4721 142.533 43.7102 155.935 53.4408L109.857 116.905L35.2761 141.164Z" fill="#CB2123"/>
<path d="M109.858 195.332C93.2958 195.332 77.1587 190.089 63.7596 180.354C50.3605 170.619 40.3873 156.892 35.2693 141.14L109.858 116.905L109.858 195.332Z" fill="#F7BE12"/>
<g filter="url(#filter0_b)">
<path d="M136.498 30.0136C132.798 30.0136 129.833 29.0616 127.603 27.1575C125.372 25.199 124.148 22.5877 123.931 19.3235C123.822 17.6914 123.768 16.5489 123.768 15.8961C123.768 15.2433 123.822 13.8288 123.931 11.6527C124.094 8.33411 125.264 5.69557 127.44 3.73707C129.616 1.77857 132.635 0.799316 136.498 0.799316C140.306 0.799316 143.298 1.77857 145.474 3.73707C147.65 5.69557 148.82 8.33411 148.983 11.6527C149.092 13.8288 149.146 15.2433 149.146 15.8961C149.146 16.5489 149.092 17.6914 148.983 19.3235C148.766 22.5877 147.542 25.199 145.311 27.1575C143.081 29.0616 140.143 30.0136 136.498 30.0136ZM129.97 58.3303C129.425 58.3303 128.963 58.1943 128.582 57.9223C128.256 57.5959 128.093 57.1879 128.093 56.6982C128.093 56.3718 128.201 56.0726 128.419 55.8006L168.732 2.75782C169.167 2.21379 169.575 1.83297 169.956 1.61536C170.336 1.34334 170.88 1.20734 171.588 1.20734H177.382C177.926 1.20734 178.361 1.37055 178.687 1.69697C179.068 1.96898 179.258 2.3498 179.258 2.83942C179.258 3.16584 179.15 3.46505 178.932 3.73707L138.62 56.7798C138.184 57.3239 137.776 57.7319 137.395 58.0039C137.015 58.2215 136.471 58.3303 135.763 58.3303H129.97ZM136.498 22.9141C138.783 22.9141 140.034 21.5812 140.252 18.9155C140.36 17.1746 140.415 16.0321 140.415 15.4881C140.415 14.7808 140.36 13.6656 140.252 12.1423C140.197 10.9454 139.844 9.9662 139.191 9.20455C138.592 8.44291 137.695 8.06209 136.498 8.06209C135.247 8.06209 134.322 8.44291 133.723 9.20455C133.125 9.9662 132.771 10.9454 132.662 12.1423C132.608 12.9039 132.581 14.0192 132.581 15.4881C132.581 16.9026 132.608 18.045 132.662 18.9155C132.88 21.5812 134.159 22.9141 136.498 22.9141ZM171.016 58.7383C167.317 58.7383 164.352 57.7863 162.122 55.8822C159.945 53.9237 158.721 51.2852 158.449 47.9666C158.395 47.0417 158.368 45.7905 158.368 44.2128C158.368 42.5807 158.395 41.275 158.449 40.2958C158.667 36.9228 159.837 34.2571 161.958 32.2986C164.134 30.3401 167.154 29.3608 171.016 29.3608C174.879 29.3608 177.871 30.3401 179.993 32.2986C182.169 34.2571 183.366 36.9228 183.583 40.2958C183.692 42.4719 183.747 43.8864 183.747 44.5392C183.747 45.192 183.692 46.3345 183.583 47.9666C183.366 51.2307 182.142 53.8421 179.911 55.8006C177.681 57.7591 174.716 58.7383 171.016 58.7383ZM171.016 51.5572C172.268 51.5572 173.193 51.1763 173.791 50.4147C174.389 49.5987 174.743 48.6194 174.852 47.477C174.961 45.8449 175.015 44.7024 175.015 44.0496C175.015 43.3423 174.961 42.2271 174.852 40.7038C174.743 39.5613 174.389 38.6093 173.791 37.8476C173.193 37.0316 172.268 36.6236 171.016 36.6236C169.765 36.6236 168.84 37.0316 168.242 37.8476C167.643 38.6093 167.317 39.5613 167.263 40.7038C167.208 41.4654 167.181 42.5807 167.181 44.0496C167.181 45.5184 167.208 46.6609 167.263 47.477C167.371 48.6738 167.698 49.6531 168.242 50.4147C168.84 51.1763 169.765 51.5572 171.016 51.5572Z" fill="#575962" fill-opacity="0.1"/>
</g>
<mask id="mask0" mask-type="alpha" maskUnits="userSpaceOnUse" x="123" y="0" width="61" height="59">
<path d="M136.498 30.0136C132.798 30.0136 129.833 29.0616 127.603 27.1575C125.372 25.199 124.148 22.5877 123.931 19.3235C123.822 17.6914 123.768 16.5489 123.768 15.8961C123.768 15.2433 123.822 13.8288 123.931 11.6527C124.094 8.33411 125.264 5.69557 127.44 3.73707C129.616 1.77857 132.635 0.799316 136.498 0.799316C140.306 0.799316 143.298 1.77857 145.474 3.73707C147.65 5.69557 148.82 8.33411 148.983 11.6527C149.092 13.8288 149.146 15.2433 149.146 15.8961C149.146 16.5489 149.092 17.6914 148.983 19.3235C148.766 22.5877 147.542 25.199 145.311 27.1575C143.081 29.0616 140.143 30.0136 136.498 30.0136ZM129.97 58.3303C129.425 58.3303 128.963 58.1943 128.582 57.9223C128.256 57.5959 128.093 57.1879 128.093 56.6982C128.093 56.3718 128.201 56.0726 128.419 55.8006L168.732 2.75782C169.167 2.21379 169.575 1.83297 169.956 1.61536C170.336 1.34334 170.88 1.20734 171.588 1.20734H177.382C177.926 1.20734 178.361 1.37055 178.687 1.69697C179.068 1.96898 179.258 2.3498 179.258 2.83942C179.258 3.16584 179.15 3.46505 178.932 3.73707L138.62 56.7798C138.184 57.3239 137.776 57.7319 137.395 58.0039C137.015 58.2215 136.471 58.3303 135.763 58.3303H129.97ZM136.498 22.9141C138.783 22.9141 140.034 21.5812 140.252 18.9155C140.36 17.1746 140.415 16.0321 140.415 15.4881C140.415 14.7808 140.36 13.6656 140.252 12.1423C140.197 10.9454 139.844 9.9662 139.191 9.20455C138.592 8.44291 137.695 8.06209 136.498 8.06209C135.247 8.06209 134.322 8.44291 133.723 9.20455C133.125 9.9662 132.771 10.9454 132.662 12.1423C132.608 12.9039 132.581 14.0192 132.581 15.4881C132.581 16.9026 132.608 18.045 132.662 18.9155C132.88 21.5812 134.159 22.9141 136.498 22.9141ZM171.016 58.7383C167.317 58.7383 164.352 57.7863 162.122 55.8822C159.945 53.9237 158.721 51.2852 158.449 47.9666C158.395 47.0417 158.368 45.7905 158.368 44.2128C158.368 42.5807 158.395 41.275 158.449 40.2958C158.667 36.9228 159.837 34.2571 161.958 32.2986C164.134 30.3401 167.154 29.3608 171.016 29.3608C174.879 29.3608 177.871 30.3401 179.993 32.2986C182.169 34.2571 183.366 36.9228 183.583 40.2958C183.692 42.4719 183.747 43.8864 183.747 44.5392C183.747 45.192 183.692 46.3345 183.583 47.9666C183.366 51.2307 182.142 53.8421 179.911 55.8006C177.681 57.7591 174.716 58.7383 171.016 58.7383ZM171.016 51.5572C172.268 51.5572 173.193 51.1763 173.791 50.4147C174.389 49.5987 174.743 48.6194 174.852 47.477C174.961 45.8449 175.015 44.7024 175.015 44.0496C175.015 43.3423 174.961 42.2271 174.852 40.7038C174.743 39.5613 174.389 38.6093 173.791 37.8476C173.193 37.0316 172.268 36.6236 171.016 36.6236C169.765 36.6236 168.84 37.0316 168.242 37.8476C167.643 38.6093 167.317 39.5613 167.263 40.7038C167.208 41.4654 167.181 42.5807 167.181 44.0496C167.181 45.5184 167.208 46.6609 167.263 47.477C167.371 48.6738 167.698 49.6531 168.242 50.4147C168.84 51.1763 169.765 51.5572 171.016 51.5572Z" fill="#F2F3F7" fill-opacity="0.1"/>
</mask>
<g mask="url(#mask0)">
<g filter="url(#filter1_b)">
<rect x="88.8223" y="42.4722" width="44.2303" height="109.301" transform="rotate(-53.185 88.8223 42.4722)" fill="url(#paint0_linear)"/>
</g>
</g>
<path d="M124.68 11.6901L124.68 11.6895C124.835 8.54118 125.934 6.10093 127.941 4.29454C129.941 2.49519 132.76 1.54932 136.498 1.54932C140.178 1.54932 142.971 2.49354 144.973 4.29454C146.98 6.10093 148.079 8.54118 148.234 11.6895L148.234 11.6901C148.343 13.8709 148.396 15.2656 148.396 15.8961C148.396 16.5211 148.344 17.6408 148.235 19.2736C148.029 22.36 146.883 24.7773 144.82 26.5904C142.756 28.3503 140.007 29.2636 136.498 29.2636C132.931 29.2636 130.156 28.3487 128.094 26.5904C126.031 24.7772 124.885 22.36 124.679 19.2736C124.57 17.6408 124.518 16.5211 124.518 15.8961C124.518 15.2656 124.571 13.8709 124.68 11.6901ZM129.005 56.2691L129.01 56.2618L129.016 56.2544L169.323 3.2192C169.727 2.71496 170.064 2.41716 170.328 2.26654L170.361 2.24771L170.392 2.22566C170.595 2.08019 170.961 1.95734 171.588 1.95734H177.382C177.765 1.95734 177.996 2.06643 178.157 2.2273L178.201 2.27119L178.251 2.30726C178.425 2.43098 178.508 2.57879 178.508 2.83942C178.508 2.98365 178.465 3.11993 178.346 3.26855L178.341 3.27583L178.335 3.28326L138.028 56.3184C137.635 56.8096 137.289 57.1514 136.993 57.3693C136.769 57.4864 136.383 57.5803 135.763 57.5803H129.97C129.586 57.5803 129.297 57.4933 129.071 57.3476C128.921 57.1797 128.843 56.9773 128.843 56.6982C128.843 56.554 128.886 56.4177 129.005 56.2691ZM140.999 18.9765L141 18.9694L141 18.9622C141.109 17.2264 141.165 16.0598 141.165 15.4881C141.165 14.7538 141.109 13.6191 141 12.0983C140.939 10.7779 140.544 9.63631 139.77 8.72844C138.997 7.75237 137.859 7.31209 136.498 7.31209C135.089 7.31209 133.914 7.74801 133.134 8.74119C132.426 9.64136 132.034 10.7681 131.916 12.0744L131.915 12.0816L131.914 12.0889C131.858 12.8778 131.831 14.0144 131.831 15.4881C131.831 16.9099 131.858 18.0697 131.914 18.9622L131.914 18.9694L131.915 18.9765C132.032 20.4063 132.441 21.5975 133.243 22.4336C134.059 23.2845 135.182 23.6641 136.498 23.6641C137.792 23.6641 138.896 23.2812 139.697 22.4277C140.482 21.5917 140.883 20.4028 140.999 18.9765ZM179.484 32.8497L179.484 32.8497L179.491 32.856C181.498 34.6622 182.627 37.1311 182.835 40.3386C182.944 42.5162 182.997 43.9092 182.997 44.5392C182.997 45.1642 182.944 46.2839 182.835 47.9167C182.629 51.005 181.482 53.4234 179.416 55.237C177.354 57.0478 174.58 57.9883 171.016 57.9883C167.452 57.9883 164.677 57.0744 162.616 55.3182C160.608 53.5077 159.457 51.0621 159.198 47.9139C159.145 47.0111 159.118 45.7794 159.118 44.2128C159.118 42.5887 159.145 41.2998 159.198 40.3408C159.406 37.1284 160.51 34.6578 162.464 32.8529C164.463 31.0556 167.281 30.1108 171.016 30.1108C174.755 30.1108 177.542 31.0571 179.484 32.8497ZM174.381 50.8781L174.388 50.8683L174.396 50.8582C175.084 49.9191 175.479 48.8067 175.598 47.5481L175.599 47.5375L175.6 47.5268C175.709 45.8955 175.765 44.7303 175.765 44.0496C175.765 43.3138 175.709 42.176 175.6 40.6504L175.599 40.6415L175.598 40.6327C175.479 39.3785 175.086 38.2863 174.388 37.3939C173.615 36.3465 172.439 35.8736 171.016 35.8736C169.594 35.8736 168.418 36.3466 167.645 37.394C166.94 38.2952 166.575 39.3982 166.514 40.6591C166.458 41.4476 166.431 42.5813 166.431 44.0496C166.431 45.5243 166.458 46.6861 166.514 47.5268L166.515 47.5359L166.516 47.5449C166.633 48.8374 166.991 49.954 167.632 50.8506L167.642 50.8646L167.652 50.8781C168.433 51.8712 169.608 52.3072 171.016 52.3072C172.425 52.3072 173.6 51.8712 174.381 50.8781Z" stroke="url(#paint1_linear)" stroke-width="1.5"/>
<g filter="url(#filter2_b)">
<path d="M94.4107 58.3433C89.6676 58.3433 85.6095 57.6054 82.2366 56.1298C78.8637 54.6014 76.2813 52.5724 74.4895 50.0427C72.7503 47.5131 71.8281 44.7726 71.7227 41.8213C71.7227 41.347 71.8808 40.9517 72.197 40.6355C72.5132 40.3193 72.9084 40.1612 73.3828 40.1612H83.9758C85.1879 40.1612 86.0311 40.6619 86.5055 41.6632C87.9284 45.1942 90.5898 46.9597 94.4898 46.9597C96.8086 46.9597 98.7586 46.2482 100.34 44.8253C101.973 43.3496 102.79 41.3206 102.79 38.7382C102.79 36.4194 102 34.5221 100.419 33.0465C98.8903 31.5708 96.914 30.833 94.4898 30.833C93.1195 30.833 92.0128 31.0175 91.1696 31.3864C90.379 31.7026 89.5622 32.1769 88.7189 32.8093C87.823 33.4944 87.1115 33.837 86.5845 33.837H76.2286C75.7543 33.837 75.3327 33.6789 74.9638 33.3627C74.6476 32.9938 74.4895 32.5722 74.4895 32.0978L77.3354 4.50854C77.3881 3.77072 77.6516 3.191 78.1259 2.76938C78.6529 2.34777 79.259 2.13696 79.9441 2.13696H111.644C112.224 2.13696 112.698 2.32142 113.067 2.69033C113.489 3.05924 113.7 3.53356 113.7 4.11328V11.5442C113.7 12.1239 113.489 12.5982 113.067 12.9671C112.698 13.3361 112.224 13.5205 111.644 13.5205H88.7189L87.6913 23.7183C89.0088 22.8224 90.4581 22.1636 92.0391 21.742C93.6202 21.2677 95.6755 21.0305 98.2052 21.0305C101.525 21.0305 104.661 21.7947 107.612 23.323C110.564 24.7987 112.909 26.9067 114.648 29.6472C116.44 32.3877 117.336 35.5234 117.336 39.0545C117.336 42.7963 116.414 46.1428 114.569 49.0941C112.725 51.9927 110.063 54.2589 106.585 55.8926C103.159 57.5264 99.1012 58.3433 94.4107 58.3433Z" fill="#575962" fill-opacity="0.1"/>
</g>
<mask id="mask1" mask-type="alpha" maskUnits="userSpaceOnUse" x="71" y="2" width="47" height="57">
<path d="M94.4107 58.3433C89.6676 58.3433 85.6095 57.6054 82.2366 56.1298C78.8637 54.6014 76.2813 52.5724 74.4895 50.0427C72.7503 47.5131 71.8281 44.7726 71.7227 41.8213C71.7227 41.347 71.8808 40.9517 72.197 40.6355C72.5132 40.3193 72.9084 40.1612 73.3828 40.1612H83.9758C85.1879 40.1612 86.0311 40.6619 86.5055 41.6632C87.9284 45.1942 90.5898 46.9597 94.4898 46.9597C96.8086 46.9597 98.7586 46.2482 100.34 44.8253C101.973 43.3496 102.79 41.3206 102.79 38.7382C102.79 36.4194 102 34.5221 100.419 33.0465C98.8903 31.5708 96.914 30.833 94.4898 30.833C93.1195 30.833 92.0128 31.0175 91.1696 31.3864C90.379 31.7026 89.5622 32.1769 88.7189 32.8093C87.823 33.4944 87.1115 33.837 86.5845 33.837H76.2286C75.7543 33.837 75.3327 33.6789 74.9638 33.3627C74.6476 32.9938 74.4895 32.5722 74.4895 32.0978L77.3354 4.50854C77.3881 3.77072 77.6516 3.191 78.1259 2.76938C78.6529 2.34777 79.259 2.13696 79.9441 2.13696H111.644C112.224 2.13696 112.698 2.32142 113.067 2.69033C113.489 3.05924 113.7 3.53356 113.7 4.11328V11.5442C113.7 12.1239 113.489 12.5982 113.067 12.9671C112.698 13.3361 112.224 13.5205 111.644 13.5205H88.7189L87.6913 23.7183C89.0088 22.8224 90.4581 22.1636 92.0391 21.742C93.6202 21.2677 95.6755 21.0305 98.2052 21.0305C101.525 21.0305 104.661 21.7947 107.612 23.323C110.564 24.7987 112.909 26.9067 114.648 29.6472C116.44 32.3877 117.336 35.5234 117.336 39.0545C117.336 42.7963 116.414 46.1428 114.569 49.0941C112.725 51.9927 110.063 54.2589 106.585 55.8926C103.159 57.5264 99.1012 58.3433 94.4107 58.3433Z" fill="url(#paint2_linear)" fill-opacity="0.1"/>
</mask>
<g mask="url(#mask1)">
<g filter="url(#filter3_b)">
<rect x="40.6279" y="44.5669" width="43.9511" height="78.8491" transform="rotate(-49.6005 40.6279 44.5669)" fill="url(#paint3_linear)"/>
</g>
</g>
<path d="M86.5055 41.6632C87.9284 45.1942 90.5898 46.9597 94.4898 46.9597C96.8086 46.9597 98.7586 46.2482 100.34 44.8253L71.7227 41.8213M86.5055 41.6632C86.0311 40.6619 85.1879 40.1612 83.9758 40.1612H73.3828C72.9084 40.1612 72.5132 40.3193 72.197 40.6355C71.8808 40.9517 71.7227 41.347 71.7227 41.8213M86.5055 41.6632L85.8098 41.9435C85.8128 41.9509 85.8158 41.9583 85.8188 41.9658C85.8218 41.9719 85.8247 41.9781 85.8277 41.9843L86.5055 41.6632ZM71.7227 41.8213H72.4727C72.4727 41.8172 72.4727 41.8132 72.4727 41.8092C72.4725 41.8043 72.4724 41.7994 72.4722 41.7945L71.7227 41.8213ZM87.6913 23.7183L87.2695 23.0981C87.4402 22.982 87.6129 22.8698 87.7877 22.7613L87.6913 23.7183ZM87.6913 23.7183L88.4375 23.7935L88.4963 23.2099C88.2227 23.3699 87.9543 23.5394 87.6913 23.7183ZM75.1045 49.6135C75.1035 49.6121 75.1025 49.6106 75.1015 49.6092L74.4895 50.0427L75.1075 49.6179C75.1065 49.6164 75.1055 49.6149 75.1045 49.6135ZM82.5417 55.4446C82.5402 55.444 82.5387 55.4433 82.5372 55.4427L82.2366 56.1298L82.5462 55.4466C82.5447 55.446 82.5432 55.4453 82.5417 55.4446ZM113.936 48.6915C113.936 48.6922 113.935 48.693 113.935 48.6938C113.934 48.6948 113.934 48.6957 113.933 48.6966L114.569 49.0941L113.936 48.6915ZM78.5944 3.35504C78.5997 3.35085 78.6049 3.3467 78.6101 3.34257C78.6148 3.33833 78.6195 3.33412 78.6242 3.32994L78.1259 2.76938L78.5944 3.35504ZM75.2355 32.1748L75.2399 32.1322C75.2396 32.1208 75.2395 32.1094 75.2395 32.0978H74.4895L75.2355 32.1748ZM75.5332 32.8746C75.5206 32.8598 75.5083 32.8449 75.4965 32.83C75.4816 32.8182 75.4667 32.8059 75.4519 32.7932L74.9638 33.3627L75.5332 32.8746ZM90.891 30.69C90.8874 30.6915 90.8837 30.6929 90.8801 30.6944C90.8764 30.696 90.8727 30.6976 90.8689 30.6993L91.1696 31.3864L90.891 30.69ZM100.94 32.5069C100.938 32.5054 100.937 32.5039 100.935 32.5024C100.933 32.501 100.932 32.4996 100.93 32.4982L100.419 33.0465L100.94 32.5069Z" stroke="url(#paint4_linear)" stroke-width="1.5"/>
<path d="M48.1839 43.8317C47.8445 43.8317 47.5561 43.7129 47.3185 43.4754C47.081 43.2378 46.9622 42.9494 46.9622 42.61V32.6836H37.1885C36.8491 32.6836 36.5607 32.5648 36.3231 32.3273C36.0856 32.0897 35.9668 31.7843 35.9668 31.411V28.764C35.9668 28.3907 36.0856 28.1022 36.3231 27.8986C36.5607 27.661 36.8491 27.5423 37.1885 27.5423H46.9622V17.8704C46.9622 17.4971 47.081 17.2086 47.3185 17.005C47.5561 16.7675 47.8445 16.6487 48.1839 16.6487H51.1364C51.5097 16.6487 51.7981 16.7675 52.0017 17.005C52.2393 17.2086 52.3581 17.4971 52.3581 17.8704V27.5423H62.1317C62.505 27.5423 62.7935 27.661 62.9971 27.8986C63.2347 28.1022 63.3535 28.3907 63.3535 28.764V31.411C63.3535 31.7843 63.2347 32.0897 62.9971 32.3273C62.7596 32.5648 62.4711 32.6836 62.1317 32.6836H52.3581V42.61C52.3581 42.9494 52.2393 43.2378 52.0017 43.4754C51.7981 43.7129 51.5097 43.8317 51.1364 43.8317H48.1839Z" fill="#001424"/>
<defs>
<filter id="filter0_b" x="113.768" y="-9.20068" width="79.9791" height="77.939" filterUnits="userSpaceOnUse" color-interpolation-filters="sRGB">
<feFlood flood-opacity="0" result="BackgroundImageFix"/>
<feGaussianBlur in="BackgroundImage" stdDeviation="5"/>
<feComposite in2="SourceAlpha" operator="in" result="effect1_backgroundBlur"/>
<feBlend mode="normal" in="SourceGraphic" in2="effect1_backgroundBlur" result="shape"/>
</filter>
<filter id="filter1_b" x="-11.1777" y="-92.9375" width="314.008" height="300.906" filterUnits="userSpaceOnUse" color-interpolation-filters="sRGB">
<feFlood flood-opacity="0" result="BackgroundImageFix"/>
<feGaussianBlur in="BackgroundImage" stdDeviation="50"/>
<feComposite in2="SourceAlpha" operator="in" result="effect1_backgroundBlur"/>
<feBlend mode="normal" in="SourceGraphic" in2="effect1_backgroundBlur" result="shape"/>
</filter>
<filter id="filter2_b" x="61.7227" y="-7.86304" width="65.6133" height="76.2063" filterUnits="userSpaceOnUse" color-interpolation-filters="sRGB">
<feFlood flood-opacity="0" result="BackgroundImageFix"/>
<feGaussianBlur in="BackgroundImage" stdDeviation="5"/>
<feComposite in2="SourceAlpha" operator="in" result="effect1_backgroundBlur"/>
<feBlend mode="normal" in="SourceGraphic" in2="effect1_backgroundBlur" result="shape"/>
</filter>
<filter id="filter3_b" x="-59.3721" y="-88.9038" width="288.532" height="284.574" filterUnits="userSpaceOnUse" color-interpolation-filters="sRGB">
<feFlood flood-opacity="0" result="BackgroundImageFix"/>
<feGaussianBlur in="BackgroundImage" stdDeviation="50"/>
<feComposite in2="SourceAlpha" operator="in" result="effect1_backgroundBlur"/>
<feBlend mode="normal" in="SourceGraphic" in2="effect1_backgroundBlur" result="shape"/>
</filter>
<linearGradient id="paint0_linear" x1="115.794" y1="78.924" x2="128.649" y2="156.13" gradientUnits="userSpaceOnUse">
<stop stop-color="white"/>
<stop offset="1" stop-color="white" stop-opacity="0.09"/>
</linearGradient>
<linearGradient id="paint1_linear" x1="170.011" y1="4.13813" x2="140.351" y2="57.8711" gradientUnits="userSpaceOnUse">
<stop stop-color="#B3C1D4"/>
<stop offset="0.221329" stop-color="white"/>
<stop offset="0.537063" stop-color="#F1F1F2"/>
<stop offset="0.755944" stop-color="#ECEDF2"/>
<stop offset="1" stop-color="#BEC7D6"/>
</linearGradient>
<linearGradient id="paint2_linear" x1="105.649" y1="21.7683" x2="80.2867" y2="58.3959" gradientUnits="userSpaceOnUse">
<stop stop-color="#F2F3F7"/>
<stop offset="1" stop-color="#F2F3F7" stop-opacity="0"/>
</linearGradient>
<linearGradient id="paint3_linear" x1="67.4299" y1="70.8631" x2="72.6882" y2="111.745" gradientUnits="userSpaceOnUse">
<stop stop-color="white"/>
<stop offset="1" stop-color="white" stop-opacity="0"/>
</linearGradient>
<linearGradient id="paint4_linear" x1="106.89" y1="5.37592" x2="74.8757" y2="50.8421" gradientUnits="userSpaceOnUse">
<stop stop-color="#B3C1D4"/>
<stop offset="0.221329" stop-color="white"/>
<stop offset="0.537063" stop-color="#F1F1F2"/>
<stop offset="0.755944" stop-color="#ECEDF2"/>
<stop offset="1" stop-color="#BEC7D6"/>
</linearGradient>
</defs>
</svg>
