<svg width="197" height="74" viewBox="0 0 197 74" fill="none" xmlns="http://www.w3.org/2000/svg">
<path d="M91.9501 42.4566C91.9501 52.237 89.926 59.718 85.8779 64.8996C81.8297 70.0813 75.9032 72.6721 68.0983 72.6721C60.3906 72.6721 54.4965 70.1299 50.416 65.0454C46.3354 59.9609 44.2466 52.6742 44.1494 43.1853V30.1664C44.1494 20.2889 46.1897 12.7917 50.2702 7.67483C54.3832 2.55795 60.2935 -0.000488281 68.0012 -0.000488281C75.7089 -0.000488281 81.603 2.54176 85.6835 7.62625C89.7641 12.6784 91.8529 19.9488 91.9501 29.4377V42.4566ZM77.9111 28.1747C77.9111 22.313 77.1014 18.0543 75.4822 15.3987C73.8953 12.7107 71.4016 11.3667 68.0012 11.3667C64.6979 11.3667 62.2528 12.646 60.6659 15.2044C59.1114 17.7305 58.2856 21.6977 58.1884 27.106V44.3026C58.1884 50.0672 58.9657 54.3582 60.5202 57.1757C62.1071 59.9609 64.6331 61.3534 68.0983 61.3534C71.5312 61.3534 74.0086 60.0095 75.5308 57.3215C77.0529 54.6335 77.8463 50.5206 77.9111 44.9827V28.1747Z" fill="#F7BE12"/>
<path d="M144.287 42.4566C144.287 52.237 142.263 59.718 138.215 64.8996C134.166 70.0813 128.24 72.6721 120.435 72.6721C112.727 72.6721 106.833 70.1299 102.753 65.0454C98.6722 59.9609 96.5833 52.6742 96.4862 43.1853V30.1664C96.4862 20.2889 98.5264 12.7917 102.607 7.67483C106.72 2.55795 112.63 -0.000488281 120.338 -0.000488281C128.046 -0.000488281 133.94 2.54176 138.02 7.62625C142.101 12.6784 144.19 19.9488 144.287 29.4377V42.4566ZM130.248 28.1747C130.248 22.313 129.438 18.0543 127.819 15.3987C126.232 12.7107 123.738 11.3667 120.338 11.3667C117.035 11.3667 114.59 12.646 113.003 15.2044C111.448 17.7305 110.622 21.6977 110.525 27.106V44.3026C110.525 50.0672 111.302 54.3582 112.857 57.1757C114.444 59.9609 116.97 61.3534 120.435 61.3534C123.868 61.3534 126.345 60.0095 127.868 57.3215C129.39 54.6335 130.183 50.5206 130.248 44.9827V28.1747Z" fill="#F7BE12"/>
<path d="M196.624 42.4566C196.624 52.237 194.599 59.718 190.551 64.8996C186.503 70.0813 180.577 72.6721 172.772 72.6721C165.064 72.6721 159.17 70.1299 155.089 65.0454C151.009 59.9609 148.92 52.6742 148.823 43.1853V30.1664C148.823 20.2889 150.863 12.7917 154.944 7.67483C159.057 2.55795 164.967 -0.000488281 172.675 -0.000488281C180.382 -0.000488281 186.276 2.54176 190.357 7.62625C194.438 12.6784 196.526 19.9488 196.624 29.4377V42.4566ZM182.585 28.1747C182.585 22.313 181.775 18.0543 180.156 15.3987C178.569 12.7107 176.075 11.3667 172.675 11.3667C169.371 11.3667 166.926 12.646 165.339 15.2044C163.785 17.7305 162.959 21.6977 162.862 27.106V44.3026C162.862 50.0672 163.639 54.3582 165.194 57.1757C166.781 59.9609 169.307 61.3534 172.772 61.3534C176.205 61.3534 178.682 60.0095 180.204 57.3215C181.726 54.6335 182.52 50.5206 182.585 44.9827V28.1747Z" fill="#F7BE12"/>
<path d="M2.42141 36.7245L6.50195 0.776855H46.1415V12.4841H18.0149L16.2661 27.689C19.6018 25.9078 23.148 25.0172 26.9047 25.0172C33.6408 25.0172 38.9196 27.1061 42.7411 31.2838C46.5625 35.4615 48.4733 41.307 48.4733 48.8204C48.4733 53.3867 47.5017 57.4835 45.5586 61.1106C43.6479 64.7054 40.8951 67.5067 37.3004 69.5146C33.7056 71.4901 29.4631 72.4779 24.5729 72.4779C20.2981 72.4779 16.3309 71.6197 12.6713 69.9032C9.01181 68.1544 6.11333 65.7094 3.9759 62.568C1.87086 59.4266 0.753565 55.848 0.624023 51.8323H14.5173C14.8088 54.7793 15.8289 57.0787 17.5777 58.7303C19.3589 60.3496 21.6745 61.1592 24.5244 61.1592C27.6981 61.1592 30.1432 60.0257 31.8596 57.7588C33.576 55.4594 34.4343 52.2209 34.4343 48.0432C34.4343 44.0274 33.4465 40.9508 31.471 38.8134C29.4955 36.6759 26.6942 35.6072 23.067 35.6072C19.7313 35.6072 17.0272 36.4816 14.9545 38.2304L13.5943 39.4935L2.42141 36.7245Z" fill="#F7BE12"/>
<mask id="mask0" mask-type="alpha" maskUnits="userSpaceOnUse" x="37" y="0" width="25" height="74">
<rect x="37.9316" y="0.776855" width="23.3174" height="72.2843" fill="#C4C4C4"/>
</mask>
<g mask="url(#mask0)">
<g filter="url(#filter0_d)">
<path d="M2.42141 36.7245L6.50195 0.776855H46.1415V12.4841H18.0149L16.2661 27.689C19.6018 25.9078 23.148 25.0172 26.9047 25.0172C33.6408 25.0172 38.9196 27.1061 42.7411 31.2838C46.5625 35.4615 48.4733 41.307 48.4733 48.8204C48.4733 53.3867 47.5017 57.4835 45.5586 61.1106C43.6479 64.7054 40.8951 67.5067 37.3004 69.5146C33.7056 71.4901 29.4631 72.4779 24.5729 72.4779C20.2981 72.4779 16.3309 71.6197 12.6713 69.9032C9.01181 68.1544 6.11333 65.7094 3.9759 62.568C1.87086 59.4266 0.753565 55.848 0.624023 51.8323H14.5173C14.8088 54.7793 15.8289 57.0787 17.5777 58.7303C19.3589 60.3496 21.6745 61.1592 24.5244 61.1592C27.6981 61.1592 30.1432 60.0257 31.8596 57.7588C33.576 55.4594 34.4343 52.2209 34.4343 48.0432C34.4343 44.0274 33.4465 40.9508 31.471 38.8134C29.4955 36.6759 26.6942 35.6072 23.067 35.6072C19.7313 35.6072 17.0272 36.4816 14.9545 38.2304L13.5943 39.4935L2.42141 36.7245Z" fill="#F7BE12"/>
</g>
</g>
<path d="M47.2586 12.4355H37.9316V27.5665C41.8179 29.535 43.3724 31.0895 44.1496 32.644C44.1496 21.7625 44.9269 17.8763 47.2586 12.4355Z" fill="#1E1F20"/>
<defs>
<filter id="filter0_d" x="-9.37598" y="-11.2231" width="67.8493" height="91.701" filterUnits="userSpaceOnUse" color-interpolation-filters="sRGB">
<feFlood flood-opacity="0" result="BackgroundImageFix"/>
<feColorMatrix in="SourceAlpha" type="matrix" values="0 0 0 0 0 0 0 0 0 0 0 0 0 0 0 0 0 0 127 0"/>
<feOffset dy="-2"/>
<feGaussianBlur stdDeviation="5"/>
<feColorMatrix type="matrix" values="0 0 0 0 0 0 0 0 0 0 0 0 0 0 0 0 0 0 1 0"/>
<feBlend mode="normal" in2="BackgroundImageFix" result="effect1_dropShadow"/>
<feBlend mode="normal" in="SourceGraphic" in2="effect1_dropShadow" result="shape"/>
</filter>
</defs>
</svg>
