<svg width="425" height="426" viewBox="0 0 425 426" fill="none" xmlns="http://www.w3.org/2000/svg">
<g filter="url(#filter0_f)">
<ellipse cx="152.176" cy="411.531" rx="95.8657" ry="3.88645" fill="#001424" fill-opacity="0.15"/>
</g>
<g filter="url(#filter1_f)">
<ellipse cx="109.391" cy="411.532" rx="53.08" ry="2.15914" fill="#001424" fill-opacity="0.05"/>
</g>
<path d="M291.115 203.162C280.632 203.162 272.231 200.452 265.91 195.031C259.59 189.456 256.121 182.023 255.504 172.731C255.196 168.085 255.042 164.833 255.042 162.975C255.042 161.116 255.196 157.09 255.504 150.895C255.967 141.449 259.281 133.938 265.448 128.363C271.614 122.788 280.17 120 291.115 120C301.906 120 310.384 122.788 316.551 128.363C322.717 133.938 326.031 141.449 326.494 150.895C326.802 157.09 326.956 161.116 326.956 162.975C326.956 164.833 326.802 168.085 326.494 172.731C325.877 182.023 322.409 189.456 316.088 195.031C309.768 200.452 301.443 203.162 291.115 203.162ZM272.616 283.768C271.074 283.768 269.764 283.381 268.685 282.607C267.76 281.678 267.297 280.516 267.297 279.122C267.297 278.193 267.606 277.342 268.222 276.567L382.453 125.575C383.686 124.026 384.842 122.942 385.921 122.323C387.001 121.549 388.542 121.161 390.546 121.161H406.964C408.505 121.161 409.739 121.626 410.664 122.555C411.743 123.33 412.282 124.414 412.282 125.807C412.282 126.737 411.974 127.588 411.357 128.363L297.127 279.355C295.894 280.903 294.737 282.065 293.658 282.839C292.579 283.459 291.038 283.768 289.034 283.768H272.616ZM291.115 182.952C297.589 182.952 301.135 179.158 301.752 171.57C302.06 166.614 302.214 163.362 302.214 161.813C302.214 159.8 302.06 156.625 301.752 152.289C301.597 148.882 300.595 146.095 298.746 143.926C297.05 141.758 294.506 140.674 291.115 140.674C287.569 140.674 284.948 141.758 283.253 143.926C281.557 146.095 280.555 148.882 280.247 152.289C280.093 154.457 280.015 157.632 280.015 161.813C280.015 165.84 280.093 169.092 280.247 171.57C280.863 179.158 284.486 182.952 291.115 182.952ZM388.927 284.93C378.445 284.93 370.043 282.22 363.723 276.8C357.556 271.224 354.088 263.714 353.317 254.267C353.163 251.634 353.086 248.072 353.086 243.581C353.086 238.935 353.163 235.219 353.317 232.431C353.934 222.83 357.248 215.241 363.26 209.666C369.427 204.091 377.982 201.303 388.927 201.303C399.873 201.303 408.351 204.091 414.363 209.666C420.53 215.241 423.921 222.83 424.538 232.431C424.846 238.626 425 242.652 425 244.51C425 246.369 424.846 249.621 424.538 254.267C423.921 263.559 420.453 270.992 414.132 276.567C407.812 282.142 399.41 284.93 388.927 284.93ZM388.927 264.488C392.473 264.488 395.094 263.404 396.79 261.236C398.485 258.913 399.487 256.125 399.796 252.873C400.104 248.227 400.258 244.975 400.258 243.117C400.258 241.103 400.104 237.929 399.796 233.593C399.487 230.34 398.485 227.63 396.79 225.462C395.094 223.139 392.473 221.978 388.927 221.978C385.382 221.978 382.761 223.139 381.065 225.462C379.37 227.63 378.445 230.34 378.291 233.593C378.136 235.761 378.059 238.935 378.059 243.117C378.059 247.298 378.136 250.55 378.291 252.873C378.599 256.28 379.524 259.068 381.065 261.236C382.761 263.404 385.382 264.488 388.927 264.488Z" fill="#125DA2"/>
<g filter="url(#filter2_b)">
<path d="M151.485 371.026C120.394 371.026 93.793 366.19 71.6834 356.517C49.5738 346.498 32.6462 333.198 20.9004 316.616C9.50019 300.034 3.4546 282.07 2.76367 262.724C2.76367 259.615 3.80006 257.024 5.87283 254.951C7.9456 252.878 10.5366 251.842 13.6457 251.842H83.0836C91.0293 251.842 96.5567 255.124 99.6658 261.687C108.993 284.833 126.439 296.406 152.003 296.406C167.204 296.406 179.986 291.743 190.35 282.415C201.059 272.742 206.414 259.442 206.414 242.514C206.414 227.314 201.232 214.877 190.868 205.204C180.849 195.531 167.895 190.695 152.003 190.695C143.021 190.695 135.767 191.904 130.239 194.322C125.057 196.395 119.703 199.504 114.175 203.65C108.302 208.141 103.639 210.386 100.184 210.386H32.3007C29.1915 210.386 26.4278 209.35 24.0096 207.277C21.9368 204.859 20.9004 202.095 20.9004 198.986L39.5554 18.1366C39.9009 13.3002 41.6282 9.50008 44.7373 6.73638C48.1919 3.97268 52.1648 2.59082 56.6558 2.59082H264.451C268.251 2.59082 271.361 3.79994 273.779 6.21818C276.542 8.63641 277.924 11.7456 277.924 15.5457V64.2558C277.924 68.0559 276.542 71.1651 273.779 73.5833C271.361 76.0015 268.251 77.2106 264.451 77.2106H114.175L107.439 144.058C116.075 138.185 125.575 133.866 135.939 131.103C146.303 127.994 159.776 126.439 176.358 126.439C198.123 126.439 218.678 131.448 238.023 141.467C257.369 151.14 272.742 164.958 284.143 182.922C295.888 200.886 301.761 221.441 301.761 244.587C301.761 269.115 295.716 291.052 283.624 310.398C271.533 329.398 254.087 344.253 231.287 354.962C208.832 365.672 182.231 371.026 151.485 371.026Z" fill="#575962" fill-opacity="0.1"/>
</g>
<mask id="mask0" mask-type="alpha" maskUnits="userSpaceOnUse" x="2" y="2" width="300" height="370">
<path d="M151.485 371.026C120.394 371.026 93.793 366.19 71.6834 356.517C49.5738 346.498 32.6462 333.198 20.9004 316.616C9.50019 300.034 3.4546 282.07 2.76367 262.724C2.76367 259.615 3.80006 257.024 5.87283 254.951C7.9456 252.878 10.5366 251.842 13.6457 251.842H83.0836C91.0293 251.842 96.5567 255.124 99.6658 261.687C108.993 284.833 126.439 296.406 152.003 296.406C167.204 296.406 179.986 291.743 190.35 282.415C201.059 272.742 206.414 259.442 206.414 242.514C206.414 227.314 201.232 214.877 190.868 205.204C180.849 195.531 167.895 190.695 152.003 190.695C143.021 190.695 135.767 191.904 130.239 194.322C125.057 196.395 119.703 199.504 114.175 203.65C108.302 208.141 103.639 210.386 100.184 210.386H32.3007C29.1915 210.386 26.4278 209.35 24.0096 207.277C21.9368 204.859 20.9004 202.095 20.9004 198.986L39.5554 18.1366C39.9009 13.3002 41.6282 9.50008 44.7373 6.73638C48.1919 3.97268 52.1648 2.59082 56.6558 2.59082H264.451C268.251 2.59082 271.361 3.79994 273.779 6.21818C276.542 8.63641 277.924 11.7456 277.924 15.5457V64.2558C277.924 68.0559 276.542 71.1651 273.779 73.5833C271.361 76.0015 268.251 77.2106 264.451 77.2106H114.175L107.439 144.058C116.075 138.185 125.575 133.866 135.939 131.103C146.303 127.994 159.776 126.439 176.358 126.439C198.123 126.439 218.678 131.448 238.023 141.467C257.369 151.14 272.742 164.958 284.143 182.922C295.888 200.886 301.761 221.441 301.761 244.587C301.761 269.115 295.716 291.052 283.624 310.398C271.533 329.398 254.087 344.253 231.287 354.962C208.832 365.672 182.231 371.026 151.485 371.026Z" fill="url(#paint0_linear)" fill-opacity="0.1"/>
</mask>
<g mask="url(#mask0)">
<g filter="url(#filter3_b)">
<rect x="-201.059" y="280.721" width="288.102" height="516.86" transform="rotate(-49.6005 -201.059 280.721)" fill="url(#paint1_linear)" fill-opacity="0.45"/>
</g>
</g>
<path fill-rule="evenodd" clip-rule="evenodd" d="M70.4567 358.884L70.4413 358.877C47.9948 348.706 30.6723 335.138 18.6134 318.114L18.6029 318.099L18.5927 318.084C6.92493 301.113 0.710876 282.675 0.00165059 262.816L0 262.77V262.724C0 258.974 1.2776 255.709 3.86804 253.119C6.45847 250.529 9.72296 249.251 13.473 249.251H82.9109C87.24 249.251 91.09 250.147 94.3385 252.075C97.6015 254.013 100.089 256.893 101.835 260.578L101.868 260.648L101.896 260.719C106.403 271.901 112.797 280.123 121.005 285.568C129.218 291.016 139.444 293.816 151.831 293.816C166.452 293.816 178.597 289.35 188.44 280.493C198.51 271.397 203.65 258.848 203.65 242.514C203.65 227.974 198.725 216.243 188.927 207.099L188.911 207.084L188.895 207.068C179.429 197.929 167.153 193.286 151.831 193.286C143.047 193.286 136.185 194.474 131.105 196.696L131.067 196.713L131.029 196.728C126.104 198.698 120.95 201.679 115.567 205.715C112.548 208.023 109.764 209.814 107.224 211.037C104.701 212.252 102.273 212.977 100.011 212.977H32.128C28.384 212.977 25.026 211.709 22.1507 209.245L21.9994 209.115L21.8697 208.963C19.4051 206.088 18.1368 202.73 18.1368 198.986V198.853L36.8013 17.9104C37.1935 12.5385 39.1551 8.07839 42.8433 4.80001L42.8935 4.75534L42.9461 4.71332C46.8676 1.57609 51.4134 0 56.4831 0H264.279C268.652 0 272.425 1.4063 275.377 4.32505C278.682 7.24716 280.343 11.0573 280.343 15.5458V64.256C280.343 68.7444 278.682 72.5545 275.377 75.4766C272.425 78.3954 268.652 79.8018 264.279 79.8018H116.345L110.38 138.995C118.002 134.429 126.232 130.968 135.061 128.61C145.753 125.408 159.49 123.848 176.186 123.848C198.359 123.848 219.317 128.954 239.025 139.157C258.772 149.034 274.495 163.163 286.148 181.518C298.185 199.934 304.179 220.985 304.179 244.587C304.179 269.563 298.017 291.982 285.649 311.771L285.643 311.78L285.638 311.789C273.253 331.25 255.409 346.413 232.221 357.305C209.347 368.212 182.352 373.617 151.312 373.617C119.962 373.617 92.989 368.742 70.4722 358.891L70.4567 358.884ZM231.114 354.962C253.915 344.253 271.361 329.398 283.452 310.398C295.543 291.052 301.588 269.115 301.588 244.587C301.588 221.441 295.716 200.886 283.97 182.922C272.57 164.958 257.197 151.14 237.851 141.467C218.505 131.448 197.95 126.439 176.186 126.439C159.604 126.439 146.13 127.994 135.767 131.103C126.506 133.572 117.935 137.283 110.054 142.235C109.115 142.825 108.185 143.432 107.266 144.058L114.003 77.2108H264.279C268.079 77.2108 271.188 76.0017 273.606 73.5835C276.37 71.1652 277.752 68.056 277.752 64.256V15.5458C277.752 11.7457 276.37 8.63655 273.606 6.21833C271.188 3.80009 268.079 2.59097 264.279 2.59097H56.4831C51.9921 2.59097 48.0192 3.97282 44.5646 6.73653C41.4555 9.50022 39.7281 13.3003 39.3827 18.1368L20.7277 198.986C20.7277 202.095 21.7641 204.859 23.8369 207.277C26.2551 209.35 29.0188 210.386 32.128 210.386H100.011C103.466 210.386 108.13 208.141 114.003 203.65C119.53 199.504 124.885 196.395 130.066 194.322C135.594 191.904 142.849 190.695 151.831 190.695C167.722 190.695 180.677 195.532 190.695 205.205C201.059 214.877 206.241 227.314 206.241 242.514C206.241 259.442 200.886 272.742 190.177 282.415C179.813 291.743 167.031 296.407 151.831 296.407C126.266 296.407 108.821 284.834 99.4931 261.688C96.3839 255.124 90.8565 251.842 82.9109 251.842H13.473C10.3639 251.842 7.7729 252.878 5.70013 254.951C3.62735 257.024 2.59097 259.615 2.59097 262.724C3.28189 282.07 9.32748 300.034 20.7277 316.616C32.4734 333.198 49.4011 346.499 71.5107 356.517C93.6202 366.19 120.221 371.026 151.312 371.026C182.059 371.026 208.659 365.672 231.114 354.962Z" fill="url(#paint2_linear)"/>
<defs>
<filter id="filter0_f" x="46.3105" y="397.645" width="211.731" height="27.7729" filterUnits="userSpaceOnUse" color-interpolation-filters="sRGB">
<feFlood flood-opacity="0" result="BackgroundImageFix"/>
<feBlend mode="normal" in="SourceGraphic" in2="BackgroundImageFix" result="shape"/>
<feGaussianBlur stdDeviation="5" result="effect1_foregroundBlur"/>
</filter>
<filter id="filter1_f" x="46.3105" y="399.373" width="126.16" height="24.3183" filterUnits="userSpaceOnUse" color-interpolation-filters="sRGB">
<feFlood flood-opacity="0" result="BackgroundImageFix"/>
<feBlend mode="normal" in="SourceGraphic" in2="BackgroundImageFix" result="shape"/>
<feGaussianBlur stdDeviation="5" result="effect1_foregroundBlur"/>
</filter>
<filter id="filter2_b" x="-7.23633" y="-7.40918" width="318.997" height="388.435" filterUnits="userSpaceOnUse" color-interpolation-filters="sRGB">
<feFlood flood-opacity="0" result="BackgroundImageFix"/>
<feGaussianBlur in="BackgroundImage" stdDeviation="5"/>
<feComposite in2="SourceAlpha" operator="in" result="effect1_backgroundBlur"/>
<feBlend mode="normal" in="SourceGraphic" in2="effect1_backgroundBlur" result="shape"/>
</filter>
<filter id="filter3_b" x="-301.059" y="-38.6812" width="780.334" height="754.386" filterUnits="userSpaceOnUse" color-interpolation-filters="sRGB">
<feFlood flood-opacity="0" result="BackgroundImageFix"/>
<feGaussianBlur in="BackgroundImage" stdDeviation="50"/>
<feComposite in2="SourceAlpha" operator="in" result="effect1_backgroundBlur"/>
<feBlend mode="normal" in="SourceGraphic" in2="effect1_backgroundBlur" result="shape"/>
</filter>
<linearGradient id="paint0_linear" x1="225.155" y1="131.275" x2="58.9013" y2="371.372" gradientUnits="userSpaceOnUse">
<stop stop-color="#F2F3F7"/>
<stop offset="1" stop-color="#F2F3F7" stop-opacity="0"/>
</linearGradient>
<linearGradient id="paint1_linear" x1="-25.3704" y1="453.094" x2="9.09861" y2="721.079" gradientUnits="userSpaceOnUse">
<stop stop-color="white"/>
<stop offset="1" stop-color="white" stop-opacity="0"/>
</linearGradient>
<linearGradient id="paint2_linear" x1="214.791" y1="-9.06838" x2="111.152" y2="373.963" gradientUnits="userSpaceOnUse">
<stop stop-color="#B3C1D5"/>
<stop offset="0.270901" stop-color="white"/>
<stop offset="0.601025" stop-color="#EFF0F0"/>
<stop offset="0.789736" stop-color="#EBECF3"/>
<stop offset="1" stop-color="#BEC7D6"/>
</linearGradient>
</defs>
</svg>
