<svg width="17" height="13" viewBox="0 0 17 13" fill="none" xmlns="http://www.w3.org/2000/svg">
<path d="M10.7979 6.57153L16.1918 10.1947V2.79541L10.7979 6.57153Z" fill="#1E1F20"/>
<path d="M0.191406 2.79541V10.1947L5.58541 6.57153L0.191406 2.79541Z" fill="#1E1F20"/>
<path d="M15.1917 0.640625H1.19168C0.69268 0.640625 0.29668 1.03588 0.22168 1.54481L8.19168 7.124L16.1617 1.54481C16.0867 1.03588 15.6907 0.640625 15.1917 0.640625Z" fill="#1E1F20"/>
<path d="M9.88163 7.21322L8.46663 8.20347C8.38264 8.26191 8.28763 8.2906 8.19163 8.2906C8.09563 8.2906 8.00063 8.26191 7.91663 8.20347L6.50163 7.21216L0.223633 11.4313C0.300633 11.936 0.694633 12.3281 1.19163 12.3281H15.1916C15.6886 12.3281 16.0826 11.936 16.1596 11.4313L9.88163 7.21322Z" fill="#1E1F20"/>
</svg>
