<svg width="18" height="10" viewBox="0 0 18 10" fill="none" xmlns="http://www.w3.org/2000/svg">
<path fill-rule="evenodd" clip-rule="evenodd" d="M14.8204 6.20686C15.3843 6.72192 15.9795 7.20651 16.4852 7.7735C16.7087 8.02547 16.9202 8.28547 17.082 8.57788C17.3113 8.99355 17.1036 9.45097 16.7052 9.47579L14.2286 9.47475C13.5898 9.52433 13.0803 9.28376 12.6518 8.8752C12.3089 8.54846 11.9914 8.20072 11.6617 7.86296C11.5265 7.72491 11.385 7.59501 11.216 7.49233C10.8779 7.28703 10.5845 7.34989 10.3912 7.67976C10.1945 8.01528 10.1498 8.38679 10.1305 8.76071C10.104 9.30628 9.92771 9.44972 9.3419 9.47469C8.08997 9.52992 6.90182 9.35274 5.79808 8.76192C4.82497 8.24106 4.07037 7.50576 3.41357 6.67332C2.13477 5.05239 1.15547 3.27125 0.275309 1.44022C0.0771915 1.02768 0.222079 0.806234 0.708631 0.798396C1.51657 0.783713 2.3244 0.784758 3.13329 0.797351C3.46166 0.801845 3.67905 0.978041 3.80584 1.26825C4.24296 2.27375 4.77783 3.23039 5.44921 4.11712C5.628 4.3532 5.81031 4.58928 6.06992 4.75544C6.35713 4.93942 6.5758 4.87844 6.71091 4.57914C6.79665 4.38936 6.83418 4.18494 6.85351 3.98168C6.91752 3.28238 6.92595 2.58429 6.81368 1.88745C6.74476 1.45255 6.48291 1.17101 6.01904 1.08871C5.78232 1.04675 5.81757 0.964351 5.93218 0.837952C6.13125 0.619953 6.31848 0.484253 6.6917 0.484253H9.49064C9.93128 0.56561 10.0291 0.750794 10.0895 1.16558L10.0919 4.07412C10.0871 4.23469 10.1776 4.71118 10.4868 4.81746C10.7342 4.89313 10.8973 4.70794 11.0458 4.56116C11.7159 3.89578 12.1942 3.10943 12.6215 2.29517C12.8111 1.93714 12.9741 1.56531 13.1322 1.19379C13.2492 0.918107 13.4329 0.782459 13.7649 0.788468L16.4587 0.790715C16.5386 0.790715 16.6194 0.791812 16.6968 0.804196C17.1507 0.876566 17.2751 1.05924 17.1349 1.47392C16.914 2.12452 16.4842 2.66669 16.0639 3.21137C15.6147 3.79289 15.1342 4.35451 14.6887 4.93947C14.2794 5.47365 14.3119 5.74291 14.8204 6.20686Z" fill="#1E1F20"/>
</svg>
