<svg width="31" height="27" viewBox="0 0 31 27" fill="none" xmlns="http://www.w3.org/2000/svg">
<path d="M1.23204 13.028L8.14464 15.608L10.8202 24.2127C10.9914 24.7638 11.6653 24.9675 12.1126 24.6018L15.9658 21.4606C16.3697 21.1315 16.945 21.1151 17.3671 21.4215L24.3169 26.4672C24.7954 26.815 25.4733 26.5528 25.5933 25.9746L30.6844 1.48549C30.8154 0.853886 30.1948 0.326986 29.5934 0.559586L1.22394 11.5037C0.523837 11.7737 0.529937 12.7649 1.23204 13.028ZM10.389 14.2346L23.8988 5.91389C24.1416 5.76479 24.3914 6.09309 24.1829 6.28649L13.0334 16.6505C12.6415 17.0153 12.3887 17.5035 12.3171 18.0334L11.9373 20.848C11.887 21.2238 11.3591 21.2611 11.2554 20.8974L9.79474 15.7649C9.62744 15.1795 9.87124 14.5542 10.389 14.2346Z" fill="white"/>
</svg>
