<svg width="386" height="193" viewBox="0 0 386 193" fill="none" xmlns="http://www.w3.org/2000/svg">
<path d="M148.288 58.7924C148.288 72.1739 145.518 82.4094 139.98 89.4989C134.441 96.5884 126.332 100.133 115.654 100.133C105.108 100.133 97.0436 96.6549 91.4606 89.6983C85.8776 82.7417 83.0196 72.7721 82.8867 59.7894V41.977C82.8867 28.4626 85.6782 18.2049 91.2612 11.204C96.8885 4.20309 104.975 0.702637 115.521 0.702637C126.066 0.702637 134.131 4.18093 139.714 11.1375C145.297 18.0498 148.155 27.9973 148.288 40.98V58.7924ZM129.079 39.2519C129.079 31.2319 127.972 25.4052 125.756 21.7718C123.585 18.0941 120.173 16.2553 115.521 16.2553C111.001 16.2553 107.656 18.0055 105.485 21.506C103.358 24.9621 102.228 30.39 102.095 37.7897V61.3181C102.095 69.2052 103.158 75.0762 105.285 78.9311C107.456 82.7417 110.912 84.647 115.654 84.647C120.35 84.647 123.74 82.8082 125.823 79.1305C127.905 75.4528 128.991 69.8255 129.079 62.2486V39.2519Z" fill="#125DA2"/>
<path d="M38.992 100.92C31.1465 100.92 24.2817 99.4253 18.3977 96.4366C12.5136 93.4479 7.98376 89.385 4.80823 84.2481C1.63269 79.0178 0.0449219 73.1338 0.0449219 66.5959C0.0449219 58.2835 3.64075 49.2238 10.8324 39.417L36.4702 4.25263C37.0306 3.41205 37.6377 2.75826 38.2915 2.29127C39.0387 1.73088 40.0193 1.45068 41.2335 1.45068H54.2626C55.1031 1.45068 55.8036 1.77758 56.364 2.43137C56.9244 2.99175 57.2046 3.69224 57.2046 4.53283C57.2046 4.99982 56.9711 5.6069 56.5041 6.35409L36.8905 33.5329C38.7585 33.066 40.7665 32.8325 42.9147 32.8325C49.1724 33.0193 54.9163 34.607 60.1466 37.5958C65.4703 40.4911 69.6732 44.4605 72.7554 49.504C75.9309 54.5475 77.5187 60.1514 77.5187 66.3157C77.5187 72.5734 75.9309 78.3641 72.7554 83.6878C69.6732 88.918 65.1901 93.121 59.3061 96.2965C53.5154 99.3786 46.744 100.92 38.992 100.92ZM38.8519 84.8085C44.1756 84.8085 48.6587 83.2208 52.3012 80.0452C55.9437 76.7763 57.765 72.2465 57.765 66.4558C57.765 60.7585 55.9437 56.3221 52.3012 53.1466C48.6587 49.8776 44.1756 48.2432 38.8519 48.2432C33.5282 48.2432 29.045 49.8776 25.4025 53.1466C21.76 56.3221 19.9387 60.7585 19.9387 66.4558C19.9387 72.2465 21.76 76.7763 25.4025 80.0452C29.045 83.2208 33.5282 84.8085 38.8519 84.8085Z" fill="#125DA2"/>
<path d="M204.972 150.097C204.972 163.479 202.203 173.714 196.664 180.804C191.125 187.893 183.017 191.438 172.338 191.438C161.793 191.438 153.728 187.96 148.145 181.003C142.562 174.046 139.704 164.077 139.571 151.094V133.282C139.571 119.767 142.363 109.51 147.946 102.509C153.573 95.5078 161.66 92.0073 172.205 92.0073C182.751 92.0073 190.815 95.4856 196.398 102.442C201.981 109.355 204.839 119.302 204.972 132.285V150.097ZM185.764 130.557C185.764 122.537 184.656 116.71 182.441 113.077C180.27 109.399 176.858 107.56 172.205 107.56C167.686 107.56 164.34 109.31 162.169 112.811C160.042 116.267 158.912 121.695 158.779 129.094V152.623C158.779 160.51 159.843 166.381 161.97 170.236C164.141 174.046 167.597 175.952 172.338 175.952C177.035 175.952 180.425 174.113 182.507 170.435C184.59 166.757 185.675 161.13 185.764 153.553V130.557Z" fill="#125DA2"/>
<path d="M277.487 150.097C277.487 163.479 274.717 173.714 269.179 180.804C263.64 187.893 255.531 191.438 244.853 191.438C234.307 191.438 226.243 187.96 220.66 181.003C215.077 174.046 212.219 164.077 212.086 151.094V133.282C212.086 119.767 214.877 109.51 220.46 102.509C226.088 95.5078 234.174 92.0073 244.72 92.0073C255.266 92.0073 263.33 95.4856 268.913 102.442C274.496 109.355 277.354 119.302 277.487 132.285V150.097ZM258.279 130.557C258.279 122.537 257.171 116.71 254.955 113.077C252.784 109.399 249.372 107.56 244.72 107.56C240.2 107.56 236.855 109.31 234.684 112.811C232.557 116.267 231.427 121.695 231.294 129.094V152.623C231.294 160.51 232.358 166.381 234.484 170.236C236.656 174.046 240.112 175.952 244.853 175.952C249.55 175.952 252.939 174.113 255.022 170.435C257.104 166.757 258.19 161.13 258.279 153.553V130.557Z" fill="#125DA2"/>
<path d="M304.263 142.831C297.902 142.831 292.804 141.194 288.969 137.92C285.134 134.553 283.03 130.063 282.656 124.451C282.469 121.645 282.375 119.681 282.375 118.558C282.375 117.436 282.469 115.004 282.656 111.262C282.936 105.556 284.947 101.02 288.689 97.6526C292.43 94.2852 297.622 92.6016 304.263 92.6016C310.81 92.6016 315.955 94.2852 319.696 97.6526C323.438 101.02 325.449 105.556 325.73 111.262C325.917 115.004 326.01 117.436 326.01 118.558C326.01 119.681 325.917 121.645 325.73 124.451C325.355 130.063 323.251 134.553 319.416 137.92C315.581 141.194 310.53 142.831 304.263 142.831ZM293.038 191.517C292.103 191.517 291.308 191.283 290.653 190.816C290.092 190.254 289.811 189.553 289.811 188.711C289.811 188.15 289.998 187.635 290.372 187.168L359.684 95.9689C360.432 95.0335 361.133 94.3788 361.788 94.0046C362.443 93.5369 363.378 93.3031 364.594 93.3031H374.556C375.491 93.3031 376.24 93.5837 376.801 94.1449C377.456 94.6126 377.783 95.2674 377.783 96.1092C377.783 96.6704 377.596 97.1849 377.222 97.6526L307.911 188.851C307.162 189.787 306.461 190.488 305.806 190.956C305.151 191.33 304.216 191.517 303 191.517H293.038ZM304.263 130.624C308.191 130.624 310.343 128.333 310.717 123.749C310.904 120.756 310.997 118.792 310.997 117.857C310.997 116.641 310.904 114.723 310.717 112.104C310.623 110.046 310.015 108.363 308.893 107.053C307.864 105.744 306.321 105.089 304.263 105.089C302.111 105.089 300.521 105.744 299.492 107.053C298.463 108.363 297.855 110.046 297.668 112.104C297.575 113.414 297.528 115.331 297.528 117.857C297.528 120.289 297.575 122.253 297.668 123.749C298.042 128.333 300.241 130.624 304.263 130.624ZM363.612 192.219C357.252 192.219 352.154 190.582 348.319 187.308C344.577 183.941 342.473 179.404 342.005 173.698C341.911 172.108 341.865 169.957 341.865 167.244C341.865 164.438 341.911 162.193 342.005 160.51C342.379 154.71 344.39 150.127 348.038 146.76C351.78 143.392 356.971 141.709 363.612 141.709C370.253 141.709 375.398 143.392 379.046 146.76C382.787 150.127 384.845 154.71 385.219 160.51C385.406 164.251 385.5 166.683 385.5 167.805C385.5 168.928 385.406 170.892 385.219 173.698C384.845 179.311 382.74 183.8 378.905 187.168C375.07 190.535 369.973 192.219 363.612 192.219ZM363.612 179.872C365.763 179.872 367.354 179.217 368.382 177.908C369.411 176.504 370.019 174.821 370.206 172.857C370.394 170.05 370.487 168.086 370.487 166.964C370.487 165.748 370.394 163.83 370.206 161.211C370.019 159.247 369.411 157.61 368.382 156.3C367.354 154.897 365.763 154.196 363.612 154.196C361.461 154.196 359.871 154.897 358.842 156.3C357.813 157.61 357.252 159.247 357.158 161.211C357.064 162.521 357.018 164.438 357.018 166.964C357.018 169.489 357.064 171.453 357.158 172.857C357.345 174.914 357.906 176.598 358.842 177.908C359.871 179.217 361.461 179.872 363.612 179.872Z" fill="#125DA2"/>
<path d="M173.334 57.778C172.584 57.778 171.971 57.5395 171.494 57.0624C171.017 56.5854 170.778 55.9721 170.778 55.2225V45.6136C170.778 44.864 171.017 44.2507 171.494 43.7737C171.971 43.2966 172.584 43.0581 173.334 43.0581H205.329C206.079 43.0581 206.692 43.2966 207.169 43.7737C207.714 44.2507 207.987 44.864 207.987 45.6136V55.2225C207.987 55.9721 207.714 56.5854 207.169 57.0624C206.692 57.5395 206.079 57.778 205.329 57.778H173.334Z" fill="#125DA2"/>
<path d="M79.4625 191.355C78.527 191.355 77.7318 191.028 77.077 190.373C76.4221 189.718 76.0947 188.923 76.0947 187.988V180.831C76.0947 178.305 77.2641 176.107 79.6028 174.236L101.774 152.205C111.409 144.628 118.098 138.734 121.84 134.524C125.676 130.221 127.593 126.011 127.593 121.895C127.593 117.498 126.377 114.037 123.945 111.511C121.606 108.986 118.051 107.723 113.28 107.723C108.603 107.723 104.908 109.126 102.195 111.932C99.482 114.645 97.7981 118.2 97.1433 122.597C96.8626 123.719 96.3481 124.561 95.5997 125.123C94.8513 125.59 94.0094 125.824 93.0739 125.824H80.5851C79.7431 125.824 79.0415 125.544 78.4802 124.982C77.9189 124.421 77.6383 123.766 77.6383 123.018C77.8254 117.498 79.3222 112.353 82.1286 107.582C84.9351 102.718 89.0045 98.8354 94.3368 95.9354C99.6691 92.9419 105.937 91.4451 113.14 91.4451C120.624 91.4451 126.939 92.7548 132.084 95.3741C137.323 97.9 141.252 101.408 143.871 105.898C146.49 110.389 147.8 115.487 147.8 121.194C147.8 127.461 146.023 133.121 142.468 138.173C139.006 143.224 133.674 148.65 126.471 154.45L106.545 174.657H146.537C147.566 174.657 148.361 174.984 148.923 175.639C149.578 176.201 149.905 176.996 149.905 178.025V187.988C149.905 188.923 149.578 189.718 148.923 190.373C148.361 191.028 147.566 191.355 146.537 191.355H79.4625Z" fill="#125DA2"/>
</svg>
