<svg width="16" height="16" viewBox="0 0 16 16" fill="none" xmlns="http://www.w3.org/2000/svg">
<path d="M11.3791 0.484375H4.49981C2.26089 0.484375 0.439453 2.30581 0.439453 4.54473V11.4241C0.439453 13.6629 2.26089 15.4843 4.49981 15.4843H11.3792C13.618 15.4843 15.4394 13.6629 15.4394 11.4241V4.54473C15.4394 2.30581 13.618 0.484375 11.3791 0.484375V0.484375ZM7.93944 12.0858C5.67786 12.0858 3.838 10.2459 3.838 7.98436C3.838 5.72278 5.67786 3.88292 7.93944 3.88292C10.201 3.88292 12.0409 5.72278 12.0409 7.98436C12.0409 10.2459 10.201 12.0858 7.93944 12.0858ZM12.139 4.85017C11.4706 4.85017 10.927 4.30658 10.927 3.63825C10.927 2.96991 11.4706 2.42621 12.139 2.42621C12.8073 2.42621 13.351 2.96991 13.351 3.63825C13.351 4.30658 12.8073 4.85017 12.139 4.85017Z" fill="#1E1F20"/>
<path d="M7.86084 5.62085C6.60113 5.62085 5.57617 6.64572 5.57617 7.90551C5.57617 9.16522 6.60113 10.1902 7.86084 10.1902C9.12063 10.1902 10.1455 9.16522 10.1455 7.90551C10.1455 6.64572 9.12063 5.62085 7.86084 5.62085Z" fill="#1E1F20"/>
</svg>
