<svg width="17" height="18" viewBox="0 0 17 18" fill="none" xmlns="http://www.w3.org/2000/svg">
<path d="M14.6148 3.22112C13.0767 1.68298 11.0317 0.835938 8.8565 0.835938C6.6813 0.835938 4.63625 1.68298 3.09812 3.22112C1.55998 4.75925 0.712971 6.80423 0.712971 8.97944C0.712971 10.3573 1.06177 11.7114 1.72384 12.9108L0 17.8359L4.92512 16.1121C6.12455 16.7741 7.47857 17.123 8.85647 17.123C11.0317 17.123 13.0767 16.2759 14.6148 14.7378C16.1529 13.1997 17 11.1547 17 8.97944C17 6.8042 16.1529 4.75922 14.6148 3.22112ZM12.8823 12.0046L11.9422 12.9448C11.1634 13.7236 8.95352 12.7766 7.00646 10.8295C5.05936 8.88238 4.11231 6.67262 4.89115 5.89377L5.83127 4.95366C6.02597 4.75895 6.34166 4.75895 6.53637 4.95366L7.71153 6.12881C7.90623 6.32352 7.90623 6.63921 7.71153 6.83392L7.00642 7.53902C7.69037 8.98292 8.85301 10.1455 10.2969 10.8295L11.002 10.1244C11.1967 9.92968 11.5124 9.92968 11.7071 10.1244L12.8823 11.2995C13.077 11.4943 13.077 11.8099 12.8823 12.0046Z" fill="#1E1F20"/>
</svg>
