<svg width="18" height="15" viewBox="0 0 18 15" fill="none" xmlns="http://www.w3.org/2000/svg">
<path d="M0.491676 7.18093L4.40882 8.64293L5.92499 13.5189C6.022 13.8312 6.40388 13.9466 6.65735 13.7394L8.84083 11.9594C9.06971 11.7729 9.39571 11.7636 9.6349 11.9372L13.5731 14.7965C13.8443 14.9936 14.2284 14.845 14.2964 14.5173L17.1814 0.640176C17.2556 0.28227 16.9039 -0.0163068 16.5631 0.1155L0.487086 6.31716C0.0903631 6.47016 0.0938197 7.03184 0.491676 7.18093ZM5.68064 7.86467L13.3362 3.1496C13.4738 3.06511 13.6153 3.25115 13.4972 3.36074L7.17914 9.23368C6.95706 9.4404 6.81381 9.71704 6.77323 10.0173L6.55801 11.6123C6.52951 11.8252 6.23037 11.8463 6.1716 11.6403L5.34387 8.73184C5.24907 8.40011 5.38722 8.04577 5.68064 7.86467Z" fill="#1E1F20"/>
</svg>
